<svg width="" height="" viewBox="0 0 40 40" fill="none" xmlns="http://www.w3.org/2000/svg">
<rect width="40" height="40" rx="12" fill="#F5F5F7"/>
<path fill-rule="evenodd" clip-rule="evenodd" d="M11.6723 14.8837C10.993 16.0333 10.7694 17.5402 10.9854 18.8356C11.41 21.3834 13.6197 23.6795 15.9641 25.4158C17.1074 26.2625 18.2252 26.9342 19.0586 27.3944C19.4433 27.6068 19.7654 27.7731 19.999 27.8898C20.2326 27.7731 20.5547 27.6068 20.9394 27.3944C21.7728 26.9342 22.8906 26.2625 24.034 25.4158C26.3784 23.6795 28.588 21.3835 29.0127 18.8356C29.2286 17.5403 29.005 16.0334 28.3256 14.8837C27.6716 13.7769 26.6052 13 24.9991 13C23.3919 13 22.4126 13.782 21.799 14.6C21.4861 15.0172 21.2741 15.4397 21.1408 15.7596C21.0747 15.9183 21.0295 16.048 21.0018 16.1341C20.988 16.1771 20.9786 16.2089 20.9733 16.2277L20.9683 16.2457L20.9687 16.2442C20.9685 16.2452 20.9686 16.2447 20.9683 16.2457C20.9682 16.2461 20.9684 16.2455 20.9683 16.2457C20.8556 16.6887 20.4565 17 19.999 17C19.5415 17 19.1425 16.6896 19.0299 16.2465C19.0298 16.2463 19.0299 16.2468 19.0299 16.2465L19.0247 16.2277C19.0193 16.2089 19.01 16.1771 18.9962 16.1341C18.9685 16.048 18.9233 15.9182 18.8572 15.7596C18.7239 15.4397 18.5119 15.0172 18.199 14.6C17.5855 13.782 16.6062 13 14.9989 13C13.3927 13 12.3263 13.7769 11.6723 14.8837ZM19.999 16C19.0288 16.2425 19.029 16.2429 19.0291 16.2434L19.0296 16.2454L19.0299 16.2465M19.999 13.681C19.9361 13.5878 19.8695 13.494 19.799 13.4C18.9125 12.218 17.3918 11 14.9989 11C12.605 11 10.9214 12.2231 9.95045 13.8663C9.00478 15.4667 8.72843 17.4598 9.01258 19.1644C9.57439 22.5349 12.3648 25.2389 14.7738 27.023C16.0071 27.9364 17.2044 28.6551 18.0918 29.1452C18.5364 29.3907 18.9056 29.5801 19.1655 29.709C19.2955 29.7734 19.3984 29.8229 19.4699 29.8567C19.5057 29.8736 19.5337 29.8866 19.5532 29.8957L19.5763 29.9063L19.583 29.9094L19.5852 29.9104C19.5855 29.9105 19.5865 29.9109 19.999 29L19.5865 29.9109C19.8487 30.0297 20.1493 30.0297 20.4115 29.911L19.999 29C20.4115 29.911 20.4112 29.9111 20.4115 29.911L20.4149 29.9094L20.4217 29.9063L20.4447 29.8957C20.4643 29.8866 20.4923 29.8736 20.528 29.8567C20.5996 29.8229 20.7024 29.7734 20.8325 29.709C21.0924 29.5801 21.4616 29.3907 21.9062 29.1452C22.7936 28.6551 23.9909 27.9364 25.2243 27.023C27.6333 25.2389 30.4237 22.5349 30.9855 19.1644C31.2696 17.4597 30.9932 15.4667 30.0475 13.8663C29.0765 12.2231 27.3929 11 24.9991 11C22.6062 11 21.0855 12.218 20.199 13.4C20.1285 13.494 20.0619 13.5878 19.999 13.681Z" fill="#FF6633"/>
</svg>
