<svg width="27" height="26" viewBox="0 0 27 26" fill="none" xmlns="http://www.w3.org/2000/svg">
<path d="M7.21582 14.1159V21.9363C7.21582 23.0331 8.13927 23.9224 9.27832 23.9224H17.5283C18.6674 23.9224 19.5908 23.0331 19.5908 21.9363V9.72461L8.35886 9.72461C7.61196 11.0692 7.21582 12.5767 7.21582 14.1159Z" fill="#FFF6DE"/>
<path fill-rule="evenodd" clip-rule="evenodd" d="M2.13736 5.47323C2.46439 4.96451 3.15777 4.8074 3.68605 5.12232L25.3423 18.032C25.8706 18.347 26.0337 19.0147 25.7067 19.5234C25.3797 20.0321 24.6863 20.1892 24.158 19.8743L2.50176 6.96456C1.97347 6.64964 1.81032 5.98195 2.13736 5.47323Z" fill="#FF6633"/>
<path fill-rule="evenodd" clip-rule="evenodd" d="M8.15625 2.07357C8.15625 1.47526 8.65993 0.990234 9.28125 0.990234H17.8154C18.4368 0.990234 18.9404 1.47526 18.9404 2.07357C18.9404 2.63667 18.4943 3.09943 17.9238 3.15194L17.9611 5.92172C17.9611 6.24533 18.1331 6.75583 18.4941 7.39837C18.8367 8.00826 19.2741 8.6076 19.6379 9.07465C19.6721 9.11866 19.7029 9.16512 19.7298 9.21363C20.5636 10.7147 21.0059 12.3975 21.0059 14.1159V21.9363C21.0059 23.6315 19.5787 25.0057 17.8184 25.0057H9.27832C7.51795 25.0057 6.09082 23.6315 6.09082 21.9363V14.1159C6.09082 12.3975 6.53306 10.7147 7.36686 9.21363C7.39381 9.16512 7.42455 9.11866 7.45883 9.07465C7.82255 8.6076 8.26 8.00826 8.60263 7.39837C8.96359 6.75583 9.13566 6.24533 9.13566 5.92172V5.90767L9.17288 3.15194C8.6024 3.09943 8.15625 2.63667 8.15625 2.07357ZM11.423 3.1569L11.3857 5.92952C11.3833 6.81206 10.9821 7.71636 10.5816 8.4293C10.1806 9.14318 9.69435 9.81158 9.31242 10.3056C8.67727 11.476 8.34082 12.7824 8.34082 14.1159V21.9363C8.34082 22.4348 8.76059 22.8391 9.27832 22.8391H17.8184C18.3361 22.8391 18.7559 22.4348 18.7559 21.9363V14.1159C18.7559 12.7824 18.4194 11.476 17.7843 10.3056C17.4023 9.81157 16.9161 9.14318 16.5151 8.4293C16.1146 7.71636 15.7134 6.81208 15.711 5.92954L15.6737 3.1569H11.423Z" fill="#1D1D1F"/>
</svg>
