<svg width="27" height="26" viewBox="0 0 27 26" fill="none" xmlns="http://www.w3.org/2000/svg">
<path d="M16.6978 6.26109C16.6723 6.01925 16.7131 5.7675 16.8294 5.53385C17.1535 4.88237 17.9419 4.61831 18.5903 4.94405L20.1789 5.74222L22.1612 2.75441C22.5633 2.14837 23.3782 1.9846 23.9813 2.38863C24.5845 2.79266 24.7475 3.61149 24.3454 4.21753L22.5451 6.93101L23.8403 7.58173C24.4886 7.90747 24.7514 8.69966 24.4272 9.35114C24.3368 9.53282 24.2103 9.68437 24.0608 9.8014C24.3757 11.1981 24.3013 12.8546 23.831 14.5574C22.7445 18.4918 19.8345 21.8473 15.7934 23.2009C11.3772 24.6801 7.65151 24.0561 4.72776 22.0975C3.64727 21.3737 2.91412 20.637 2.5158 20.1034C1.83014 19.1847 2.5593 17.8855 3.6964 17.9998C8.42436 18.4748 10.5286 16.8682 12.454 12.7113C12.5816 12.436 12.7082 12.1531 12.8759 11.7714C12.924 11.6618 12.9797 11.5345 13.0835 11.2974C13.1677 11.1053 13.2304 10.9628 13.2922 10.8237C14.3239 8.50257 15.3503 6.97839 16.6978 6.26109Z" fill="#FF6633"/>
</svg>
