<svg width="27" height="26" viewBox="0 0 27 26" fill="none" xmlns="http://www.w3.org/2000/svg">
<path d="M13.7956 21.4106C13.7984 21.7628 13.6658 22.0874 13.4455 22.3287C13.2137 22.5803 12.894 22.7381 12.5382 22.7494C12.1821 22.7609 11.8534 22.6238 11.6107 22.3914C11.3721 22.1608 11.22 21.8454 11.2014 21.4936C11.1505 20.6578 11.124 19.8495 11.1219 19.0689C11.1018 18.7832 11.0778 18.5049 11.0498 18.2339C6.61664 17.7001 3.7346 14.6376 2.57649 9.29978L2.25 7.79495L3.75124 7.68519C7.58205 7.40513 10.3281 8.88872 11.9704 11.982C13.5927 6.24269 17.5351 3.25 23.7475 3.25H24.8733L25.0325 4.39152C25.0968 4.85249 25.1458 5.60811 25.1124 6.56592C25.0568 8.16025 24.778 9.75945 24.1985 11.2702C22.6293 15.3615 19.213 17.9524 13.7183 18.2824C13.7144 18.5202 13.7129 18.7616 13.714 19.0066C13.7681 19.7714 13.7954 20.5729 13.7956 21.4106Z" fill="#84C502"/>
</svg>
