<svg width="55" height="55" viewBox="0 0 55 55" fill="none" xmlns="http://www.w3.org/2000/svg">
<g clip-path="url(#clip0_2822_93764)">
<path fill-rule="evenodd" clip-rule="evenodd" d="M7.26697 14.8641C6.06856 14.8641 5.2587 15.6925 5.2587 16.5366V39.9506C5.2587 40.7947 6.06856 41.623 7.26697 41.623H47.4323C48.6307 41.623 49.4405 40.7947 49.4405 39.9506V16.5366C49.4405 15.6925 48.6307 14.8641 47.4323 14.8641H7.26697ZM0.349609 16.5366C0.349609 13.0702 3.53588 10.4043 7.26697 10.4043H47.4323C51.1633 10.4043 54.3496 13.0702 54.3496 16.5366V39.9506C54.3496 43.4169 51.1633 46.0829 47.4323 46.0829H7.26697C3.53588 46.0829 0.349609 43.4169 0.349609 39.9506V16.5366Z" fill="#FF6633"/>
<path fill-rule="evenodd" clip-rule="evenodd" d="M29.0435 20.2136C27.36 19.8788 25.6151 20.0506 24.0292 20.7075C22.4437 21.3643 21.0881 22.4767 20.1345 23.9039C19.1808 25.3311 18.6719 27.0092 18.6719 28.7254C18.6719 31.027 19.5862 33.2346 21.2138 34.8621C22.8413 36.4896 25.0488 37.404 27.3504 37.404C29.0665 37.404 30.7445 36.8953 32.1718 35.9415C33.5993 34.9879 34.7116 33.6323 35.3683 32.0468C36.0252 30.4609 36.1969 28.7154 35.8623 27.0321C35.5274 25.3491 34.7008 23.8024 33.4869 22.5886C32.2733 21.3749 30.7267 20.5485 29.0435 20.2136ZM25.6897 24.7165C24.897 25.0449 24.2192 25.6011 23.7425 26.3147C23.2657 27.0281 23.0112 27.8673 23.0112 28.7254C23.0112 29.8762 23.4683 30.98 24.2821 31.7937C25.0959 32.6075 26.1997 33.0647 27.3504 33.0647C28.2087 33.0647 29.0477 32.8103 29.761 32.3336C30.4744 31.857 31.031 31.179 31.3593 30.3862C31.6877 29.5935 31.7738 28.7209 31.6065 27.879C31.4389 27.0373 31.0253 26.2635 30.4186 25.657C29.812 25.0503 29.0387 24.637 28.197 24.4695C27.3552 24.3021 26.4826 24.3881 25.6897 24.7165Z" fill="#FF6633"/>
</g>
<defs>
<clipPath id="clip0_2822_93764">
<rect width="54" height="54" fill="white" transform="translate(0.349609 0.761719)"/>
</clipPath>
</defs>
</svg>
