<svg width="55" height="55" viewBox="0 0 55 55" fill="none" xmlns="http://www.w3.org/2000/svg">
<g clip-path="url(#clip0_2822_93783)">
<path fill-rule="evenodd" clip-rule="evenodd" d="M6.93298 14.8641C5.73458 14.8641 4.92472 15.6925 4.92472 16.5366V39.9506C4.92472 40.7947 5.73458 41.623 6.93298 41.623H47.0983C48.2967 41.623 49.1065 40.7947 49.1065 39.9506V16.5366C49.1065 15.6925 48.2967 14.8641 47.0983 14.8641H6.93298ZM0.015625 16.5366C0.015625 13.0702 3.2019 10.4043 6.93298 10.4043H47.0983C50.8294 10.4043 54.0156 13.0702 54.0156 16.5366V39.9506C54.0156 43.4169 50.8294 46.0829 47.0983 46.0829H6.93298C3.2019 46.0829 0.015625 43.4169 0.015625 39.9506V16.5366Z" fill="#FF6633"/>
<path fill-rule="evenodd" clip-rule="evenodd" d="M0.015625 23.9042C0.015625 22.839 1.11456 21.9756 2.47017 21.9756H51.5611C52.9167 21.9756 54.0156 22.839 54.0156 23.9042C54.0156 24.9693 52.9167 25.8327 51.5611 25.8327H2.47017C1.11456 25.8327 0.015625 24.9693 0.015625 23.9042Z" fill="#FF6633"/>
</g>
<defs>
<clipPath id="clip0_2822_93783">
<rect width="54" height="54" fill="white" transform="translate(0.015625 0.761719)"/>
</clipPath>
</defs>
</svg>
