<svg width="25" height="25" viewBox="0 0 25 25" fill="none" xmlns="http://www.w3.org/2000/svg">
<g clip-path="url(#clip0_1_5191)">
<path d="M12.0156 3.76172C7.05294 3.76172 3.01562 7.79904 3.01562 12.7617C3.01562 17.7244 7.05294 21.7617 12.0156 21.7617C16.9783 21.7617 21.0156 17.7244 21.0156 12.7617C21.0156 7.79904 16.9783 3.76172 12.0156 3.76172ZM12.0156 19.7945C8.13764 19.7945 4.98284 16.6397 4.98284 12.7617C4.98284 8.88393 8.13764 5.72893 12.0156 5.72893C15.8936 5.72893 19.0484 8.88393 19.0484 12.7617C19.0484 16.6397 15.8936 19.7945 12.0156 19.7945Z" fill="#1D1D1F"/>
<path d="M12.7982 12.7729V9.00077C12.7982 8.57959 12.4569 8.23828 12.0359 8.23828C11.6148 8.23828 11.2734 8.57959 11.2734 9.00077V13.0165C11.2734 13.0284 11.2764 13.0397 11.277 13.0517C11.2669 13.259 11.3384 13.4695 11.4967 13.6279L14.3364 16.4674C14.6342 16.7652 15.117 16.7652 15.4146 16.4674C15.7123 16.1695 15.7125 15.6868 15.4146 15.3891L12.7982 12.7729Z" fill="#1D1D1F"/>
</g>
<defs>
<clipPath id="clip0_1_5191">
<rect width="18" height="18" fill="white" transform="translate(3.01562 3.76172)"/>
</clipPath>
</defs>
</svg>
