<svg width="55" height="55" viewBox="0 0 55 55" fill="none" xmlns="http://www.w3.org/2000/svg">
<path fill-rule="evenodd" clip-rule="evenodd" d="M27.6836 50.2617C40.11 50.2617 50.1836 40.1881 50.1836 27.7617C50.1836 15.3353 40.11 5.26172 27.6836 5.26172C15.2572 5.26172 5.18359 15.3353 5.18359 27.7617C5.18359 40.1881 15.2572 50.2617 27.6836 50.2617ZM27.6836 54.7617C42.5953 54.7617 54.6836 42.6734 54.6836 27.7617C54.6836 12.85 42.5953 0.761719 27.6836 0.761719C12.7719 0.761719 0.683594 12.85 0.683594 27.7617C0.683594 42.6734 12.7719 54.7617 27.6836 54.7617Z" fill="#FF6633"/>
<path d="M22.481 39.4444V42.3651C22.481 42.6875 22.7262 42.9492 23.0284 42.9492H25.218C25.3632 42.9492 25.5025 42.8877 25.6051 42.7781C25.7078 42.6686 25.7654 42.52 25.7654 42.3651V39.4444H26.8603V42.3651C26.8603 42.6875 27.1055 42.9492 27.4077 42.9492H29.5974C29.7425 42.9492 29.8818 42.8877 29.9844 42.7781C30.0871 42.6686 30.1448 42.52 30.1448 42.3651V39.4444H30.3287C34.6905 39.4444 37.8086 37.0308 37.8086 32.8554C37.8086 29.3459 35.6036 27.4276 33.022 27.1542V26.9486C35.146 26.3832 36.7072 24.6728 36.7072 21.8316C36.7072 18.252 34.1891 16.079 30.3462 16.079H30.1448V13.1584C30.1448 13.0034 30.0871 12.8549 29.9844 12.7453C29.8818 12.6358 29.7425 12.5742 29.5974 12.5742H27.4077C27.2625 12.5742 27.1233 12.6358 27.0206 12.7453C26.918 12.8549 26.8603 13.0034 26.8603 13.1584V16.079H25.6056V13.1584C25.6056 13.0034 25.5479 12.8549 25.4453 12.7453C25.3426 12.6358 25.2034 12.5742 25.0582 12.5742H23.0284C22.8832 12.5742 22.7439 12.6358 22.6413 12.7453C22.5386 12.8549 22.481 13.0034 22.481 13.1584V16.079L18.106 16.1047C17.9608 16.1047 17.8216 16.1663 17.7189 16.2758C17.6163 16.3854 17.5586 16.5339 17.5586 16.6889V18.9997C17.5586 19.3198 17.7995 19.5838 18.1016 19.5838L19.7548 19.5722C20.1885 19.5752 20.6034 19.7612 20.909 20.0895C21.2146 20.4178 21.3861 20.8618 21.3861 21.3246V34.1872C21.3861 34.652 21.2131 35.0977 20.9051 35.4263C20.5971 35.755 20.1794 35.9396 19.7439 35.9396L18.106 35.9653C17.9608 35.9653 17.8216 36.0268 17.7189 36.1364C17.6163 36.2459 17.5586 36.3945 17.5586 36.5494V38.886C17.5586 39.2084 17.8038 39.4701 18.106 39.4701L22.481 39.4444ZM25.6056 19.5535H29.3696C31.3535 19.5535 32.5184 20.7171 32.5184 22.619C32.5184 24.6541 31.2593 25.8014 28.4084 25.8014H25.6056V19.5535V19.5535ZM25.6056 29.0188H29.6346C32.1242 29.0188 33.4796 30.374 33.4796 32.5797C33.4796 34.8064 32.1089 35.9676 28.7543 35.9676H25.6056V29.0211V29.0188Z" fill="#FF6633"/>
<path fill-rule="evenodd" clip-rule="evenodd" d="M25.7654 39.4444V42.3651C25.7654 42.52 25.7078 42.6686 25.6051 42.7781C25.5025 42.8877 25.3632 42.9492 25.218 42.9492H23.0284C22.7262 42.9492 22.481 42.6875 22.481 42.3651V39.4444L18.106 39.4701C17.8038 39.4701 17.5586 39.2084 17.5586 38.886V36.5494C17.5586 36.3945 17.6163 36.2459 17.7189 36.1364C17.8216 36.0268 17.9608 35.9653 18.106 35.9653L19.7439 35.9396C20.1794 35.9396 20.5971 35.755 20.9051 35.4263C21.2131 35.0977 21.3861 34.652 21.3861 34.1872V21.3246C21.3861 20.8618 21.2146 20.4178 20.909 20.0895C20.6034 19.7612 20.1885 19.5752 19.7548 19.5722L18.1016 19.5838C17.7995 19.5838 17.5586 19.3198 17.5586 18.9997V16.6889C17.5586 16.5339 17.6163 16.3854 17.7189 16.2758C17.8216 16.1663 17.9608 16.1047 18.106 16.1047L22.481 16.079V13.1584C22.481 13.0034 22.5386 12.8549 22.6413 12.7453C22.7439 12.6358 22.8832 12.5742 23.0284 12.5742H25.0582C25.2034 12.5742 25.3426 12.6358 25.4453 12.7453C25.5479 12.8549 25.6056 13.0034 25.6056 13.1584V16.079H26.8603V13.1584C26.8603 13.0034 26.918 12.8549 27.0206 12.7453C27.1233 12.6358 27.2625 12.5742 27.4077 12.5742H29.5974C29.7425 12.5742 29.8818 12.6358 29.9844 12.7453C30.0871 12.8549 30.1448 13.0034 30.1448 13.1584V16.079H30.3462C34.1891 16.079 36.7072 18.252 36.7072 21.8316C36.7072 23.3553 36.2582 24.5538 35.5141 25.4248C34.8751 26.173 34.0184 26.6796 33.0416 26.9433C33.0351 26.9451 33.0285 26.9469 33.022 26.9486V27.1542C33.0385 27.156 33.0549 27.1578 33.0713 27.1596C34.0596 27.2725 34.9907 27.6273 35.7616 28.221C36.9879 29.1654 37.8086 30.7143 37.8086 32.8554C37.8086 37.0308 34.6905 39.4444 30.3287 39.4444H30.1448V42.3651C30.1448 42.52 30.0871 42.6686 29.9844 42.7781C29.8818 42.8877 29.7425 42.9492 29.5974 42.9492H27.4077C27.1055 42.9492 26.8603 42.6875 26.8603 42.3651V39.4444H25.7654ZM25.6056 18.4156H23.4159V18.4101L22.4371 18.4159C22.4456 18.4248 22.4541 18.4338 22.4625 18.4429C22.9118 18.9256 23.2369 19.5154 23.4159 20.1558V19.5535H25.6056V25.8014H28.4084C29.4069 25.8014 30.2101 25.6606 30.8323 25.3903C31.1272 25.2622 31.3815 25.105 31.5966 24.9199C32.2237 24.3803 32.5184 23.6036 32.5184 22.619C32.5184 20.7171 31.3535 19.5535 29.3696 19.5535H25.6056V18.4156ZM23.4159 35.3559C23.2357 36.0007 22.9074 36.5941 22.4534 37.0785C22.4441 37.0885 22.4348 37.0983 22.4254 37.1082L23.4159 37.1023V35.3559ZM30.8323 29.1397C30.4684 29.06 30.0687 29.0188 29.6346 29.0188H25.6056V35.9676H28.7543C32.1089 35.9676 33.4796 34.8064 33.4796 32.5797C33.4796 31.0051 32.7889 29.8639 31.4878 29.3398C31.2842 29.2577 31.0656 29.1908 30.8323 29.1397ZM18.106 18.4413L18.1181 18.4412Z" fill="#FF6633"/>
</svg>
