<svg width="55" height="55" viewBox="0 0 55 55" fill="none" xmlns="http://www.w3.org/2000/svg">
<path fill-rule="evenodd" clip-rule="evenodd" d="M24.7587 1.74541C25.8928 1.10096 27.1788 0.761719 28.4878 0.761719C29.7968 0.761719 31.0829 1.10099 32.217 1.74549C32.2187 1.74647 32.2205 1.74746 32.2222 1.74844L49.6494 11.5684C50.7836 12.2142 51.7258 13.1428 52.3812 14.261C53.0367 15.3791 53.3824 16.6476 53.3838 17.9392V37.5842C53.3824 38.8758 53.0367 40.1443 52.3812 41.2625C51.7258 42.3807 50.7836 43.3092 49.6494 43.955L49.6397 43.9604L32.2222 53.775C32.2207 53.7758 32.2192 53.7767 32.2177 53.7775C31.0834 54.4223 29.7971 54.7617 28.4878 54.7617C27.1785 54.7617 25.8923 54.4223 24.758 53.7776C24.7565 53.7767 24.7549 53.7759 24.7534 53.775L16.0494 48.8704C14.8556 48.1977 14.4409 46.6981 15.123 45.5209C15.8052 44.3437 17.326 43.9347 18.5198 44.6074L27.243 49.5228C27.6215 49.7383 28.0508 49.8517 28.4878 49.8517C28.9248 49.8517 29.3541 49.7383 29.7326 49.5228L29.7422 49.5174L47.1598 39.7028C47.1611 39.702 47.1624 39.7013 47.1637 39.7005C47.54 39.4854 47.8527 39.1767 48.0704 38.8053C48.2889 38.4326 48.4041 38.0097 48.4046 37.5792V17.9442C48.4041 17.5137 48.2889 17.0909 48.0704 16.7181C47.8527 16.3467 47.54 16.0381 47.1637 15.8229C47.1624 15.8221 47.1611 15.8214 47.1598 15.8206L29.7326 6.00065C29.3541 5.78518 28.9248 5.67172 28.4878 5.67172C28.0508 5.67172 27.6215 5.78516 27.243 6.00063L27.2334 6.0061L9.81581 15.8206C9.8145 15.8214 9.81319 15.8221 9.81189 15.8229C9.43554 16.038 9.12292 16.3467 8.90519 16.7181C8.2171 17.892 6.69428 18.2936 5.50387 17.615C4.31347 16.9365 3.90627 15.4348 4.59436 14.261C5.24982 13.1428 6.19194 12.2142 7.32622 11.5685L7.33581 11.563L24.7587 1.74541Z" fill="#FF6633"/>
<path fill-rule="evenodd" clip-rule="evenodd" d="M4.59264 13.7959C5.27676 12.5975 6.79007 12.188 7.97271 12.8812L28.3305 24.8141L48.6883 12.8812C49.871 12.188 51.3843 12.5975 52.0684 13.7959C52.7525 14.9943 52.3484 16.5277 51.1657 17.2209L29.5692 29.8798C28.8029 30.329 27.8581 30.329 27.0918 29.8798L5.4953 17.2209C4.31266 16.5277 3.90852 14.9943 4.59264 13.7959Z" fill="#FF6633"/>
<path fill-rule="evenodd" clip-rule="evenodd" d="M28.3332 25.3076C29.6897 25.3076 30.7894 26.3993 30.7894 27.7459V52.3239C30.7894 53.6705 29.6897 54.7622 28.3332 54.7622C26.9766 54.7622 25.877 53.6705 25.877 52.3239V27.7459C25.877 26.3993 26.9766 25.3076 28.3332 25.3076Z" fill="#FF6633"/>
<path fill-rule="evenodd" clip-rule="evenodd" d="M1.31445 27.7622C1.31445 26.4066 2.41413 25.3076 3.77065 25.3076H12.9814C14.3379 25.3076 15.4376 26.4066 15.4376 27.7622C15.4376 29.1178 14.3379 30.2167 12.9814 30.2167H3.77065C2.41413 30.2167 1.31445 29.1178 1.31445 27.7622ZM4.99875 35.1258C4.99875 33.7702 6.09843 32.6713 7.45495 32.6713H18.5079C19.8644 32.6713 20.9641 33.7702 20.9641 35.1258C20.9641 36.4814 19.8644 37.5803 18.5079 37.5803H7.45495C6.09843 37.5803 4.99875 36.4814 4.99875 35.1258ZM2.23553 42.4894C2.23553 41.1338 3.33521 40.0349 4.69173 40.0349H11.1393C12.4958 40.0349 13.5955 41.1338 13.5955 42.4894C13.5955 43.845 12.4958 44.944 11.1393 44.944H4.69173C3.33521 44.944 2.23553 43.845 2.23553 42.4894Z" fill="#FF6633"/>
</svg>
