<svg width="55" height="55" viewBox="0 0 55 55" fill="none" xmlns="http://www.w3.org/2000/svg">
<path d="M14.4492 30.0794V46.3217C14.4492 48.5998 16.2961 50.4467 18.5742 50.4467H35.0742C37.3523 50.4467 39.1992 48.5998 39.1992 46.3217V20.959L16.7353 20.959C15.2415 23.7516 14.4492 26.8825 14.4492 30.0794Z" fill="#FFF6DE"/>
<path fill-rule="evenodd" clip-rule="evenodd" d="M2.31061 10.6222C3.02293 9.45089 4.53318 9.08916 5.68386 9.81427L52.8538 39.5391C54.0045 40.2642 54.3599 41.8016 53.6475 42.9729C52.9352 44.1443 51.425 44.506 50.2743 43.7809L3.10431 14.0561C1.95364 13.3309 1.59828 11.7936 2.31061 10.6222Z" fill="#FF6633"/>
<path fill-rule="evenodd" clip-rule="evenodd" d="M15.1612 3.19765C15.1612 1.85232 16.2684 0.761719 17.6342 0.761719H36.3937C37.7595 0.761719 38.8667 1.85232 38.8667 3.19765C38.8667 4.46382 37.8859 5.50435 36.6319 5.62242L36.714 11.8504C36.714 12.5781 37.092 13.7259 37.8854 15.1707C38.6386 16.5421 39.6002 17.8897 40.3997 18.9399C40.475 19.0389 40.5426 19.1434 40.6019 19.2524C42.4347 22.6276 43.4068 26.4116 43.4068 30.2754V47.8599C43.4068 51.6716 40.2697 54.7617 36.4002 54.7617H17.6277C13.7582 54.7617 10.6211 51.6716 10.6211 47.8599V30.2754C10.6211 26.4116 11.5932 22.6276 13.426 19.2524C13.4853 19.1434 13.5529 19.0389 13.6282 18.9399C14.4277 17.8897 15.3893 16.5421 16.1425 15.1707C16.9359 13.7259 17.3142 12.5781 17.3142 11.8504V11.8188L17.396 5.62242C16.142 5.50435 15.1612 4.46382 15.1612 3.19765ZM22.3421 5.63357L22.26 11.8679C22.2548 13.8524 21.373 15.8857 20.4926 17.4888C19.611 19.094 18.5422 20.5969 17.7027 21.7077C16.3065 24.3394 15.567 27.2771 15.567 30.2754V47.8599C15.567 48.9809 16.4897 49.8899 17.6277 49.8899H36.4002C37.5382 49.8899 38.4609 48.9809 38.4609 47.8599V30.2754C38.4609 27.2771 37.7214 24.3394 36.3252 21.7077C35.4856 20.5969 34.4169 19.094 33.5353 17.4888C32.6549 15.8858 31.7731 13.8524 31.7679 11.868L31.6858 5.63357H22.3421Z" fill="#FF6633"/>
</svg>
