<svg width="55" height="55" viewBox="0 0 55 55" fill="none" xmlns="http://www.w3.org/2000/svg">
<g clip-path="url(#clip0_2822_93858)">
<path fill-rule="evenodd" clip-rule="evenodd" d="M14.9626 5.67081C13.6312 5.67081 12.5519 6.76975 12.5519 8.12536V47.3981C12.5519 48.7537 13.6312 49.8526 14.9626 49.8526H39.0698C40.4012 49.8526 41.4805 48.7537 41.4805 47.3981V8.12536C41.4805 6.76975 40.4012 5.67081 39.0698 5.67081H14.9626ZM7.73047 8.12536C7.73047 4.05853 10.9684 0.761719 14.9626 0.761719H39.0698C43.064 0.761719 46.3019 4.05853 46.3019 8.12536V47.3981C46.3019 51.4649 43.064 54.7617 39.0698 54.7617H14.9626C10.9684 54.7617 7.73047 51.4649 7.73047 47.3981V8.12536Z" fill="#FF6633"/>
<path fill-rule="evenodd" clip-rule="evenodd" d="M25.0879 42.2259C25.0879 40.6282 26.1618 39.333 27.4866 39.333H27.5106C28.8354 39.333 29.9093 40.6282 29.9093 42.2259C29.9093 43.8235 28.8354 45.1187 27.5106 45.1187H27.4866C26.1618 45.1187 25.0879 43.8235 25.0879 42.2259Z" fill="#FF6633"/>
</g>
<defs>
<clipPath id="clip0_2822_93858">
<rect width="54" height="54" fill="white" transform="translate(0.015625 0.761719)"/>
</clipPath>
</defs>
</svg>
