<svg width="55" height="55" viewBox="0 0 55 55" fill="none" xmlns="http://www.w3.org/2000/svg">
<path fill-rule="evenodd" clip-rule="evenodd" d="M17.8822 7.88582C17.4687 7.53092 16.9392 7.3376 16.3923 7.34297L16.3695 7.34308H9.50904C9.19653 7.3435 8.88765 7.40879 8.60207 7.53469C8.31624 7.66069 8.06016 7.84456 7.85 8.07434C7.63985 8.3041 7.48019 8.57473 7.38092 8.86889C7.28328 9.15821 7.2461 9.46425 7.27152 9.7682C7.98611 16.4524 10.2666 22.8754 13.9292 28.5178L13.9402 28.535C17.2683 33.7621 21.709 38.1941 26.9473 41.5161L26.9654 41.5277C32.5933 45.1702 38.9983 47.4463 45.6669 48.1732C45.9736 48.1985 46.2822 48.1608 46.5737 48.0624C46.8707 47.9621 47.1432 47.8012 47.3737 47.5901C47.6042 47.379 47.7877 47.1225 47.9128 46.8372C48.0378 46.5518 48.1016 46.2437 48.1004 45.9326L48.1003 45.9231V39.075C48.1003 39.0557 48.1006 39.0364 48.1011 39.0172C48.1147 38.4694 47.9262 37.9351 47.5703 37.5159C47.2161 37.0988 46.7206 36.8244 46.1765 36.7458C43.8113 36.4335 41.4889 35.8556 39.2535 35.0231L39.2483 35.0212C38.8453 34.87 38.4071 34.8372 37.9859 34.9269C37.5665 35.0161 37.1819 35.2229 36.8772 35.5222C36.8759 35.5235 36.8746 35.5248 36.8733 35.5261L33.9777 38.4159C33.2376 39.1545 32.0957 39.3086 31.1863 38.7926C25.0963 35.3366 20.0533 30.3038 16.5898 24.2247C16.0706 23.3135 16.2254 22.1675 16.9677 21.4266L19.8671 18.533C20.167 18.2289 20.3732 17.8462 20.4621 17.4301C20.5514 17.0123 20.5188 16.5776 20.3681 16.1775L20.3661 16.1722C19.5318 13.9406 18.9525 11.6221 18.6395 9.2607C18.5618 8.72725 18.2933 8.23872 17.8822 7.88582ZM16.3592 2.69065C18.0279 2.6773 19.6457 3.26833 20.9123 4.35545C22.1822 5.44539 23.0125 6.95982 23.2472 8.61694L23.2501 8.63837C23.5166 10.6549 24.0107 12.6349 24.7231 14.5407C25.1869 15.7738 25.2871 17.1139 25.0118 18.4023C24.7363 19.6918 24.0962 20.8748 23.1682 21.8114L23.159 21.8206L21.5449 23.4316C24.2234 27.6152 27.7833 31.1673 31.9767 33.8399L33.6052 32.2147C34.5436 31.2886 35.7278 30.6508 37.0173 30.3764C38.3059 30.1021 39.6462 30.202 40.8799 30.6642C42.7901 31.3754 44.7747 31.8687 46.7961 32.1347L46.8168 32.1376C48.4916 32.3734 50.0222 33.2154 51.117 34.5049C52.2049 35.7864 52.7868 37.4209 52.7528 39.101V45.919C52.7559 46.8775 52.5588 47.8261 52.1742 48.7041C51.7888 49.5837 51.2238 50.373 50.5155 51.0215C49.8073 51.67 48.9714 52.1634 48.0615 52.4705C47.1517 52.7776 46.1878 52.8916 45.2314 52.8054C45.2239 52.8047 45.2164 52.804 45.2089 52.8032C45.2025 52.8026 45.196 52.8019 45.1896 52.8012C37.7939 51.9992 30.6895 49.4778 24.4465 45.4393C18.6388 41.7543 13.7139 36.8393 10.0212 31.0423C5.95985 24.7825 3.43211 17.6559 2.64295 10.2393L2.63937 10.203C2.55303 9.24941 2.66659 8.28842 2.97274 7.38124C3.27888 6.47408 3.77084 5.64079 4.41701 4.93433C5.06317 4.22788 5.84937 3.66373 6.72539 3.27755C7.6014 2.89138 8.5482 2.69155 9.50554 2.69065L16.3592 2.69065Z" fill="#FF6633"/>
</svg>
