<svg width="55" height="55" viewBox="0 0 55 55" fill="none" xmlns="http://www.w3.org/2000/svg">
<g clip-path="url(#clip0_2822_166314)">
<path fill-rule="evenodd" clip-rule="evenodd" d="M27.0156 5.26172C22.2417 5.26172 17.6634 7.15814 14.2877 10.5338C10.912 13.9094 9.01562 18.4878 9.01562 23.2617C9.01562 30.2324 13.551 36.9963 18.524 42.2455C20.9645 44.8216 23.4126 46.9305 25.2531 48.3961C25.9381 48.9416 26.5364 49.3959 27.0156 49.75C27.4948 49.3959 28.0931 48.9416 28.7781 48.3961C30.6186 46.9305 33.0667 44.8216 35.5072 42.2455C40.4802 36.9963 45.0156 30.2324 45.0156 23.2617C45.0156 18.4878 43.1192 13.9095 39.7435 10.5338C36.3679 7.15814 31.7895 5.26172 27.0156 5.26172ZM27.0156 52.5117C25.7676 54.3838 25.767 54.3835 25.7663 54.383L25.7599 54.3787L25.7449 54.3687L25.6933 54.3338C25.6495 54.304 25.587 54.2613 25.5071 54.2059C25.3473 54.0953 25.1177 53.934 24.8282 53.7249C24.2494 53.3069 23.4299 52.6967 22.45 51.9164C20.4936 50.3585 17.8792 48.1081 15.2572 45.3404C10.1052 39.9022 4.51562 32.0411 4.51562 23.2617C4.51563 17.2943 6.88615 11.5714 11.1057 7.35182C15.3253 3.13225 21.0483 0.761719 27.0156 0.761719C32.983 0.761719 38.706 3.13225 42.9255 7.35182C47.1451 11.5714 49.5156 17.2943 49.5156 23.2617C49.5156 32.0411 43.926 39.9022 38.774 45.3404C36.152 48.1081 33.5376 50.3585 31.5813 51.9164C30.6013 52.6967 29.7819 53.3069 29.2031 53.7249C28.9136 53.934 28.6839 54.0953 28.5241 54.2059C28.4442 54.2613 28.3817 54.304 28.3379 54.3338L28.2863 54.3687L28.2713 54.3787L28.2666 54.3819C28.266 54.3823 28.2637 54.3838 27.0156 52.5117ZM27.0156 52.5117L28.2637 54.3838C27.5079 54.8877 26.5221 54.8869 25.7663 54.383L27.0156 52.5117Z" fill="#FF6633"/>
<path fill-rule="evenodd" clip-rule="evenodd" d="M27.0156 18.7617C24.5303 18.7617 22.5156 20.7764 22.5156 23.2617C22.5156 25.747 24.5303 27.7617 27.0156 27.7617C29.5009 27.7617 31.5156 25.747 31.5156 23.2617C31.5156 20.7764 29.5009 18.7617 27.0156 18.7617ZM18.0156 23.2617C18.0156 18.2912 22.0451 14.2617 27.0156 14.2617C31.9862 14.2617 36.0156 18.2912 36.0156 23.2617C36.0156 28.2323 31.9862 32.2617 27.0156 32.2617C22.0451 32.2617 18.0156 28.2323 18.0156 23.2617Z" fill="#FF6633"/>
</g>
<defs>
<clipPath id="clip0_2822_166314">
<rect width="54" height="54" fill="white" transform="translate(0.015625 0.761719)"/>
</clipPath>
</defs>
</svg>
