<svg width="55" height="55" viewBox="0 0 55 55" fill="none" xmlns="http://www.w3.org/2000/svg">
<g clip-path="url(#clip0_2822_93846)">
<path fill-rule="evenodd" clip-rule="evenodd" d="M27.3496 5.67081C15.1491 5.67081 5.2587 15.5612 5.2587 27.7617C5.2587 39.9622 15.1491 49.8526 27.3496 49.8526C39.5501 49.8526 49.4405 39.9622 49.4405 27.7617C49.4405 15.5612 39.5501 5.67081 27.3496 5.67081ZM0.349609 27.7617C0.349609 12.85 12.4379 0.761719 27.3496 0.761719C42.2613 0.761719 54.3496 12.85 54.3496 27.7617C54.3496 42.6734 42.2613 54.7617 27.3496 54.7617C12.4379 54.7617 0.349609 42.6734 0.349609 27.7617Z" fill="#FF6633"/>
<path fill-rule="evenodd" clip-rule="evenodd" d="M0.349609 28.2437C0.349609 26.9123 1.44855 25.833 2.80416 25.833H51.8951C53.2507 25.833 54.3496 26.9123 54.3496 28.2437C54.3496 29.5751 53.2507 30.6544 51.8951 30.6544H2.80416C1.44855 30.6544 0.349609 29.5751 0.349609 28.2437Z" fill="#FF6633"/>
<path fill-rule="evenodd" clip-rule="evenodd" d="M20.5993 27.8451C20.7645 35.369 23.3138 42.6127 27.8309 48.5197C32.348 42.6127 34.8973 35.369 35.0625 27.8451C34.8973 20.3212 32.348 13.0775 27.8309 7.17053C23.3138 13.0775 20.7645 20.3212 20.5993 27.8451ZM27.8309 3.37585L26.051 1.72559C19.627 8.86408 15.9763 18.128 15.7779 27.7941C15.7772 27.8281 15.7772 27.8621 15.7779 27.8961C15.9763 37.5622 19.627 46.8261 26.051 53.9646C26.5077 54.4722 27.1537 54.7613 27.8309 54.7613C28.5081 54.7613 29.1541 54.4722 29.6109 53.9646C36.0348 46.8261 39.6856 37.5622 39.884 27.8961C39.8847 27.8621 39.8847 27.8281 39.884 27.7941C39.6856 18.128 36.0348 8.86408 29.6109 1.72559L27.8309 3.37585Z" fill="#FF6633"/>
</g>
<defs>
<clipPath id="clip0_2822_93846">
<rect width="54" height="54" fill="white" transform="translate(0.349609 0.761719)"/>
</clipPath>
</defs>
</svg>
