<svg width="20" height="20" viewBox="0 0 20 20" fill="none" xmlns="http://www.w3.org/2000/svg">
<path fill-rule="evenodd" clip-rule="evenodd" d="M1.66699 9.99984C1.66699 9.5396 2.04009 9.1665 2.50033 9.1665H17.5003C17.9606 9.1665 18.3337 9.5396 18.3337 9.99984C18.3337 10.4601 17.9606 10.8332 17.5003 10.8332H2.50033C2.04009 10.8332 1.66699 10.4601 1.66699 9.99984Z" fill="black"/>
<path fill-rule="evenodd" clip-rule="evenodd" d="M1.66699 4.99984C1.66699 4.5396 2.04009 4.1665 2.50033 4.1665H17.5003C17.9606 4.1665 18.3337 4.5396 18.3337 4.99984C18.3337 5.46007 17.9606 5.83317 17.5003 5.83317H2.50033C2.04009 5.83317 1.66699 5.46007 1.66699 4.99984Z" fill="black"/>
<path fill-rule="evenodd" clip-rule="evenodd" d="M1.66699 14.9998C1.66699 14.5396 2.04009 14.1665 2.50033 14.1665H17.5003C17.9606 14.1665 18.3337 14.5396 18.3337 14.9998C18.3337 15.4601 17.9606 15.8332 17.5003 15.8332H2.50033C2.04009 15.8332 1.66699 15.4601 1.66699 14.9998Z" fill="black"/>
</svg>
