<svg width="31" height="28" viewBox="0 0 31 28" fill="none" xmlns="http://www.w3.org/2000/svg">
<path fill-rule="evenodd" clip-rule="evenodd" d="M26.6734 9.74149C26.3147 8.90382 25.9162 7.97337 24.2539 8.54307V4.02299C24.2539 1.68888 20.3077 0 15.5 0C10.6923 0 6.74609 1.68888 6.74609 4.02299V23.977C6.74609 26.3111 10.6923 28 15.5 28C20.3077 28 24.2539 26.3111 24.2539 23.977V11.9349C25.7368 12.1295 26.0567 13.292 25.7798 14.4943L27.3057 14.7357C27.648 12.531 26.8959 11.0646 24.2539 10.9498V10.0303C25.269 9.54269 25.8897 10.3397 26.5262 11.1569C27.048 11.8271 27.5805 12.5108 28.3497 12.5108C29.4741 12.5108 30.3575 11.9476 31 10.8211L29.6347 8.97057C29.367 10.2043 28.7245 10.8211 27.7072 10.8211C27.1358 10.8211 26.9135 10.3021 26.6734 9.74149ZM17.8336 15.0132C17.0554 14.8243 16.2553 14.6301 15.4678 14.6301C14.6676 14.6301 13.8591 14.8283 13.0756 15.0205C11.03 15.5222 9.15435 15.9822 8.03964 12.7628C6.67993 8.83547 9.78388 9.70094 12.614 10.49C13.7121 10.7962 14.769 11.0909 15.5079 11.0897C16.218 11.0885 17.2376 10.8124 18.3038 10.5238C21.1095 9.76413 24.2376 8.91722 22.896 12.7628C21.7768 15.9705 19.8808 15.5102 17.8336 15.0132ZM11.561 12.1024C11.2163 11.9448 10.875 11.8 10.5529 11.6952C10.5079 12.2638 10.7539 12.7927 11.3026 13.308C11.7816 13.7579 12.2329 13.8104 12.7169 13.4217C12.8764 13.2464 13.0146 13.0486 13.1315 12.8283C12.9346 12.746 12.7296 12.6526 12.5202 12.5544C12.5257 12.5881 12.5285 12.6226 12.5285 12.6578C12.5285 13.0133 12.2408 13.3015 11.886 13.3015C11.5312 13.3015 11.2435 13.0133 11.2435 12.6578C11.2435 12.4211 11.371 12.2142 11.561 12.1024ZM8.67356 12.2555C8.88088 11.6323 9.34034 11.4695 9.92216 11.5447C9.82405 12.3461 10.1423 13.1005 10.8632 13.7776C11.0709 13.9728 11.2811 14.1157 11.4921 14.2074C11.1549 14.3234 10.7776 14.3969 10.3601 14.4279C11.9924 14.7345 13.163 14.2865 13.872 13.0837C14.5529 13.248 15.0181 13.0875 15.0181 12.175C14.7811 13.125 13.7016 12.4727 12.4961 11.7443C10.8427 10.7453 8.95224 9.60307 8.67356 12.2555ZM18.4752 12.5413C18.264 12.65 18.0568 12.7519 17.857 12.8373C17.9743 13.0593 18.1132 13.2585 18.2737 13.4349C18.7578 13.8236 19.2091 13.7711 19.6881 13.3213C20.2626 12.7817 20.5052 12.2273 20.4295 11.6281C20.0828 11.7314 19.7213 11.8969 19.3594 12.0799C19.5875 12.1787 19.7472 12.4062 19.7472 12.671C19.7472 13.0265 19.4595 13.3147 19.1047 13.3147C18.7498 13.3147 18.4622 13.0265 18.4622 12.671C18.4622 12.6266 18.4667 12.5832 18.4752 12.5413ZM16.1267 12.671C16.3694 13.0275 16.7065 13.1229 17.102 13.0683C17.8092 14.2926 18.9854 14.7502 20.6306 14.4411C20.2131 14.4101 19.8357 14.3366 19.4986 14.2206C19.7096 14.1289 19.9197 13.986 20.1275 13.7908C20.8604 13.1025 21.1771 12.3343 21.0633 11.5179C21.5537 11.5067 21.9887 11.7045 22.3171 12.2687C22.0048 9.38655 20.2164 10.5537 18.5476 11.6428C17.6076 12.2562 16.7055 12.8449 16.1267 12.671ZM15.8055 11.4641C15.8055 11.9127 16.0464 12.2687 16.448 12.3492C16.0464 12.4296 15.5646 12.1078 15.8055 11.4641ZM23.1295 4.02299C23.1295 5.59931 19.7401 7.08046 15.5 7.08046C11.2599 7.08046 7.87045 5.59931 7.87045 4.02299C7.87045 2.44667 11.2599 0.965517 15.5 0.965517C19.7401 0.965517 23.1295 2.44667 23.1295 4.02299Z" fill="#1D1D1F"/>
<ellipse cx="15.5002" cy="4.02277" rx="3.77461" ry="1.6092" fill="#FF6633"/>
</svg>
