<svg width="35" height="28" viewBox="0 0 35 28" fill="none" xmlns="http://www.w3.org/2000/svg">
<path d="M14.025 2.66602C14.3418 2.78677 14.5223 2.9611 14.5663 3.18922L14.6448 3.12756L14.7716 3.10215L14.7804 3.14667L14.7569 3.23886L15.1809 3.15435L15.7028 3.32179L15.7588 3.39861L15.6321 3.42383L15.6406 3.46795C15.7573 3.75969 15.9324 4.05498 16.1658 4.3542C16.5336 4.87977 16.7817 5.47546 16.9103 6.14108L17.0278 6.74898C17.115 6.73145 17.2876 7.16246 17.5452 8.04182L17.5873 8.25929C17.5931 8.28864 17.5813 8.30637 17.5522 8.31208L17.6123 8.38812C17.6381 8.52227 17.6235 8.75097 17.5679 9.07403C17.7178 9.2393 17.8164 9.44397 17.8636 9.68824L17.8808 9.77669L17.9638 9.76014C18.022 9.74852 18.057 9.54641 18.0689 9.15401L18.1125 9.14534L18.0518 9.06536L18.0268 8.93653C18.1427 8.69877 18.1712 8.00202 18.1123 6.8459C18.1617 6.70505 18.1962 6.42927 18.2156 6.01855C18.3475 5.42345 18.4797 5.03617 18.6123 4.85652L18.6559 4.84785C18.6751 4.79092 18.6784 4.73045 18.666 4.66623L18.7492 4.64949L18.7515 4.87464C18.844 4.85613 18.9211 4.64574 18.9834 4.2431L18.9747 4.19878L19.0666 4.22655L19.058 4.18223C19.0289 4.18814 19.0115 4.17612 19.0057 4.14677C19.0507 4.13771 19.1034 4.09812 19.1637 4.0274C19.1689 4.05419 19.1848 4.06502 19.2112 4.0597C19.345 3.67341 19.4964 3.46342 19.6654 3.42974L19.7091 3.42107L19.7424 3.59422L19.4423 4.1056L19.3504 4.07783L19.2197 4.10403L19.2282 4.14835L19.3987 4.11427L19.4157 4.20291C19.2494 4.40601 19.1697 4.52657 19.1771 4.56399C19.0817 4.99284 18.971 5.94586 18.8451 7.42288L18.8537 7.4672L18.8932 7.45932C19.0057 7.16108 19.0636 6.77321 19.0675 6.29571L19.2075 5.63659L19.2549 5.62705C19.2603 5.50642 19.2854 5.44167 19.3306 5.43271L19.3741 5.42385C19.388 5.49634 19.4313 5.56312 19.5034 5.62399L19.514 5.6788C19.5336 5.66725 19.5507 5.66003 19.5652 5.65708L19.5739 5.7014C19.5307 5.93286 19.4979 6.22381 19.4751 6.57386L19.5187 6.56519C19.5848 6.55219 19.6259 6.30418 19.6424 5.82156C19.8139 5.78729 19.9194 5.49575 19.9588 4.94733L20.046 4.9298C20.0578 4.99165 20.0375 5.19081 19.9846 5.52746C20.0559 5.51308 20.1092 5.56233 20.1447 5.6752L20.1433 5.90134C20.1889 5.98132 20.2263 6.01855 20.2554 6.01264L20.2794 6.81891C20.2967 6.90736 20.3475 6.94321 20.432 6.92647L20.4398 6.96665C20.4605 7.99651 20.4252 9.18927 20.3335 10.5455C20.2389 11.0494 20.0545 11.7773 19.7806 12.7293C19.5697 13.3122 19.4497 13.6065 19.4206 13.6124L19.1794 13.7484C19.167 13.6839 19.0873 13.6552 18.9405 13.6623C18.9539 13.732 18.8209 13.8029 18.5415 13.8756C18.4101 13.7206 18.2569 13.616 18.0817 13.5618C18.0739 13.5216 18.0221 13.4873 17.9262 13.459L17.8866 13.4671L17.9037 13.5555C17.6604 13.3755 17.5349 13.2655 17.5272 13.2254C16.9529 12.3978 16.6276 11.7869 16.5514 11.3924C16.4409 10.9629 16.3203 10.5662 16.1896 10.202L16.2168 10.1088L15.9787 9.34528L16.0223 9.33662L15.9616 9.25684L15.8106 8.47578L15.6877 8.05304L15.5134 8.08791C15.527 8.15764 15.4979 8.31248 15.4264 8.55261L15.5134 8.53527C15.4917 8.87685 15.4886 9.08782 15.5043 9.16839C15.5307 9.16307 15.5467 9.17509 15.5524 9.20483C15.4599 9.22315 15.4424 9.43708 15.4996 9.84642L15.5851 10.0552C15.5704 10.2197 15.5359 10.3464 15.4818 10.4354C15.4874 10.4648 15.5049 10.4768 15.534 10.4709C15.5557 10.8958 15.5493 11.1672 15.5146 11.2858C15.5514 11.3343 15.5727 11.3745 15.5791 11.4066C15.494 11.5909 15.444 12.0204 15.4291 12.6949C15.4006 13.0018 15.3717 13.158 15.3426 13.1637L15.216 13.1889C15.1536 13.533 15.0562 13.7184 14.9242 13.7446C14.8597 13.6376 14.8063 13.5884 14.7641 13.5969L14.6768 13.6142L14.4707 13.6973C14.4457 13.5685 14.3011 13.5082 14.0367 13.5163L14.0382 13.2904C14.0101 13.1454 13.9395 13.0843 13.8259 13.107L13.7751 12.8454C13.7478 12.7029 13.6627 12.6462 13.5202 12.6748C13.3936 12.02 13.4124 10.8903 13.5766 9.2856C13.571 9.25585 13.5535 9.24423 13.5244 9.24994L13.5237 8.79864L13.6194 8.82563L13.5688 8.56383C13.6664 8.54433 13.6981 8.40289 13.6636 8.13932L13.6053 7.83754C13.6712 7.82434 13.6941 7.71521 13.6737 7.51034L13.5999 7.34113C13.6095 7.25012 13.6291 7.20166 13.658 7.19556C13.6524 7.1662 13.6349 7.15419 13.6059 7.1601C13.5888 6.91544 13.5935 6.70545 13.62 6.53013C13.5801 6.4797 13.557 6.43833 13.5506 6.40622C13.601 6.36821 13.6406 6.34634 13.6696 6.34063C13.6266 6.27405 13.5708 6.13458 13.5025 5.92242C13.5394 5.91494 13.5793 5.81644 13.6221 5.62674C13.5822 5.57631 13.5595 5.53633 13.5537 5.50658L13.5973 5.49791L13.5366 5.41813C13.5661 4.6487 13.5349 3.79909 13.443 2.8699C13.5351 2.79307 13.6433 2.74225 13.7674 2.71743L13.8942 2.69202C13.9232 2.68631 13.9407 2.69812 13.9463 2.72767L14.025 2.66602ZM19.3984 5.02987L19.4242 5.16264C19.3687 5.17387 19.3491 5.22233 19.3658 5.30802L19.3222 5.31668C19.3166 5.28733 19.2937 5.24734 19.2538 5.19672C19.341 5.17938 19.3761 5.1262 19.3588 5.03775L19.3984 5.02987ZM18.6559 4.84785L18.673 4.9365L18.6458 5.02948L18.7414 5.05646L18.785 5.0478L18.7765 5.00347L18.6893 5.02081L18.7166 4.92783L18.7081 4.88331C18.7023 4.85396 18.685 4.84194 18.6559 4.84785Z" fill="#1D1D1F"/>
<path d="M21.2636 2.081L21.5003 2.12965L21.51 2.0806L21.8291 2.19663L21.8204 2.24135C21.7267 2.22204 21.6736 2.24509 21.6606 2.31069L21.7669 2.28133L21.8107 2.2902L21.801 2.33925L21.6806 2.46315C21.6713 2.51063 21.7085 2.56756 21.7929 2.63434L21.8892 2.65404C21.9063 2.56775 21.9658 2.51358 22.0676 2.49113L22.0763 2.44661L22.2649 2.48502C22.2549 2.53545 22.428 2.73638 22.7843 3.08721C23.0654 3.43529 23.3262 3.938 23.5672 4.59614C23.7995 5.57379 23.8935 6.17559 23.8487 6.40134L23.8004 6.39129C23.8572 6.93458 23.8948 7.5742 23.9135 8.31054C23.8691 8.36649 23.8431 8.41199 23.8361 8.44784C23.9327 8.46735 23.9579 8.75534 23.9115 9.31164L23.8448 9.39516L23.7857 10.6856C23.6771 10.9108 23.6184 11.0471 23.6089 11.0946L23.5998 11.3942L23.6436 11.4031L23.7498 11.3737L23.7304 11.4718L23.6637 11.5555C23.6957 11.562 23.7087 11.5817 23.7023 11.6144C23.6701 11.6079 23.6508 11.6207 23.6444 11.6534L23.7389 11.6729C24.1461 11.0858 24.4404 10.6126 24.6219 10.2531C24.6219 10.1834 24.7188 10.0699 24.9127 9.91232L25.6327 8.29879C25.6 8.28086 25.5835 8.16563 25.5835 7.95347C25.8101 7.46573 25.9548 7.22186 26.0174 7.22186C26.253 6.70063 26.6392 5.59021 27.176 3.89059L27.6097 2.8635C27.5769 2.79968 27.5606 2.75122 27.5606 2.71792C27.6799 2.71792 27.8557 2.57097 28.0884 2.27707H28.2852L28.3299 2.47248H28.3792C28.4447 2.47248 28.4775 2.43919 28.4775 2.37241L28.9562 2.42244H29.0545C29.0545 2.51956 29.0859 2.56802 29.1485 2.56802H29.1977C29.1977 2.4709 29.2305 2.42244 29.2962 2.42244H29.3453C29.4079 2.4315 29.4393 2.4648 29.4393 2.52251L29.5376 2.47248H29.5824V2.66789H29.6807C29.7435 2.66789 29.7747 2.6346 29.7747 2.56802V2.52251L29.7299 2.42244L29.9715 2.37241H30.0655L30.0163 2.47248V2.61805C30.0818 2.61805 30.1146 2.68306 30.1146 2.81346H30.4994C30.4994 2.84675 30.4829 2.8635 30.4502 2.8635C30.4651 3.027 30.5141 3.10875 30.5977 3.10875V3.3995C30.6155 3.74817 30.7109 3.99342 30.8841 4.13584C30.8841 4.15101 30.9331 4.31471 31.0316 4.62674L31.1256 4.5767H31.1749L31.367 5.31285C31.455 5.31285 31.5025 5.39543 31.5092 5.56074L31.5101 5.6038H31.6578C31.6607 5.78857 31.7563 6.14768 31.9442 6.68112C31.9112 6.85979 31.8949 6.99 31.8949 7.07175L31.9932 7.12179C31.9932 7.0885 32.0097 7.07175 32.0425 7.07175C32.0425 7.13853 32.1378 7.35049 32.3288 7.70802C33.3218 7.6111 33.9166 7.56265 34.1134 7.56265V7.66272H34.0149L34.0642 7.90363L33.1026 8.19892L33.1474 8.29879C33.1474 8.45343 33.0043 8.55034 32.7179 8.58974V8.63978H32.8118V8.73985L32.7179 8.88522V8.98057C32.9744 9.80772 33.183 10.5425 33.3441 11.1849C33.3441 11.2365 33.3755 11.3015 33.438 11.3803V11.4303C33.438 11.4636 33.4217 11.4801 33.3887 11.4801L33.8228 12.7529C33.793 12.7529 33.778 12.7694 33.778 12.8027C33.9151 12.8027 34.0584 13.3072 34.2075 14.3162C34.1001 14.3162 34.021 14.3979 33.9704 14.5614H33.6795C33.6795 14.6615 33.5991 14.7115 33.438 14.7115C33.3247 14.5994 33.0355 14.4677 32.5704 14.3162C32.5704 14.2648 32.3302 14.1676 31.8501 14.0254C31.8501 13.989 31.7532 13.907 31.5593 13.78V13.6799L31.8949 13.7299H32.0425C32.1051 13.7299 32.1363 13.6982 32.1363 13.6344C32.1363 13.5314 31.8323 12.7314 31.2239 11.2349C31.2239 11.0348 31.0628 10.5289 30.7408 9.71691C30.1237 9.91389 29.4498 10.0608 28.719 10.1578C28.719 10.1243 28.7028 10.1077 28.67 10.1077C28.67 10.2046 28.5731 10.2697 28.3792 10.3031C27.8334 10.4304 27.5606 10.6106 27.5606 10.8439C27.3578 11.4985 27.1655 11.9543 26.9835 12.212V12.3619C27.0791 12.3619 27.1267 12.3938 27.1267 12.4574V12.5074L27.0327 12.4574H26.9344C26.839 12.7119 26.7913 12.8754 26.7913 12.9481L26.6929 12.8983C26.6929 12.9832 26.5959 13.0815 26.402 13.1935C26.402 13.2542 26.2262 13.5481 25.8743 14.0753L25.7758 14.1208H25.682L25.4897 13.9754H25.4404C25.3778 13.9845 25.3466 14.0177 25.3466 14.0753C25.3762 14.1357 25.3912 14.1842 25.3912 14.2206L25.2973 14.2707C25.2555 14.2374 25.175 14.2206 25.0558 14.2206C25.0558 14.3176 24.9916 14.366 24.8634 14.366L24.0897 13.83C23.8915 13.83 23.6985 13.5938 23.5104 13.1215C23.4946 13.335 23.4436 13.6591 23.3576 14.0937L23.2818 14.4767C23.2378 14.6996 23.1851 14.8046 23.1236 14.7922L23.0767 15.2831L23.0203 15.5684C22.8477 16.1018 22.6362 16.4249 22.3859 16.5373C22.3194 16.5899 22.2 16.6299 22.0296 16.6581L22.009 16.6654C21.8754 16.7771 21.9704 16.7467 21.8611 16.8577C21.8243 16.874 21.7395 16.8825 21.6093 16.8837V16.8848C21.5302 16.9203 21.4297 16.929 21.3078 16.9106C21.1618 17.085 21.0491 17.19 20.97 17.2252L20.4935 17.2199C20.0598 17.2715 19.5199 17.2812 18.8739 17.2489C18.377 17.004 17.7884 16.8222 17.1079 16.7026C16.7693 16.4402 16.4681 16.3084 16.2036 16.3075C16.14 16.1605 15.6873 15.8449 14.8457 15.3605C14.565 15.2014 14.3959 15.1344 14.3385 15.1602C14.1266 14.9339 13.9797 14.8389 13.8977 14.8756L13.8203 14.6967C14.6233 15.0164 15.0549 15.1628 15.1148 15.1358L15.095 15.0903L14.692 14.8929L14.6739 14.8513L14.7191 14.8312C14.7275 14.8507 14.9832 14.9522 15.4865 15.1362C15.9894 15.32 16.414 15.4124 16.7599 15.4133C17.0402 15.4669 17.2201 15.4758 17.2992 15.4403L17.3442 15.4202C17.3934 15.3984 17.4093 15.3564 17.3923 15.2946C16.2092 14.9924 15.5807 14.7554 15.5061 14.5836L15.4399 14.6677C15.35 14.7081 15.2598 14.6242 15.1697 14.4162L15.0838 14.4546L15.1216 14.5419L15.0764 14.5622C15.0237 14.4402 14.957 14.3275 14.8765 14.2245L14.9667 14.1843L14.9865 14.2298C16.5243 14.7869 17.5817 15.0808 18.1583 15.111C18.1583 15.111 19.7798 15.473 20.5327 15.0359C21.8898 14.248 21.5418 8.90663 21.5418 8.90663L21.6476 7.37978C21.6628 6.30442 21.5621 5.15263 21.3458 3.9248C21.2421 3.6502 20.8243 2.57091 20.8685 2.34811C20.9383 2.19564 21.0009 2.12473 21.0563 2.13615L21.1967 2.16472C21.2091 2.10247 21.2314 2.0745 21.2636 2.081ZM32.4323 9.9596C32.6262 10.7109 32.7708 11.0868 32.8662 11.0868V11.0367C32.8662 10.9973 32.8499 10.8352 32.817 10.5504L32.8662 10.3051C32.8335 10.3051 32.817 10.2884 32.817 10.2551L32.7232 10.3051H32.6247C32.6247 10.0746 32.5607 9.9596 32.4323 9.9596ZM29.4717 6.01984C29.3197 6.22273 29.1588 6.58165 28.9887 7.09697C28.917 7.54827 28.7888 7.98755 28.6041 8.41482H28.5548V8.61023C28.7189 8.61023 29.2497 8.48002 30.1471 8.2194V8.16957C30.1471 8.09964 29.922 7.39836 29.4717 6.06514V6.01984ZM28.0162 3.65598H27.8239V3.75605H27.9224C27.4393 4.79536 27.1977 5.51338 27.1977 5.91031C27.2663 5.89514 27.3303 5.81339 27.39 5.66486C27.3602 5.60734 27.3454 5.54214 27.3454 5.46945C27.4199 5.46945 27.5645 5.19209 27.7791 4.63777L27.7301 4.5377V4.48766C27.9059 4.28477 28.0013 4.0076 28.0162 3.65598Z" fill="#1D1D1F"/>
<path d="M7.43332 13.6401C6.8548 13.6069 6.56554 13.4766 6.56554 13.2495C6.48508 13.2495 6.40462 13.216 6.32397 13.1494C6.32397 13.1827 6.30768 13.1995 6.27492 13.1995C6.27492 13.1599 6.14657 13.0297 5.89027 12.8085C5.89027 12.669 5.76192 12.5222 5.50562 12.3676C5.21035 12.1919 4.80922 11.4906 4.30223 10.2634C4.19696 10.1131 4.13434 10.0975 4.11456 10.2165C4.14442 10.4651 4.15935 10.7497 4.15935 11.071C4.15935 11.1195 4.14442 11.1437 4.11456 11.1437L4.15935 11.2438V11.5391C4.15935 11.6027 4.12794 11.7648 4.06532 12.0254L4.15935 11.9799C4.19211 12.3162 4.2084 12.5116 4.2084 12.5664H4.15935L4.2084 12.6617V13.007L4.25764 13.2525C4.19211 13.2525 4.15935 13.3009 4.15935 13.398C4.15935 13.4252 4.17563 13.5554 4.2084 13.7889L3.68067 13.9843C3.48679 13.9843 3.39005 13.8222 3.39005 13.4979H3.29156C3.26171 13.6252 3.24678 13.7388 3.24678 13.8389H3.19753C3.19753 13.6327 3.03662 13.5024 2.71459 13.4479C2.71459 13.2298 2.63413 12.9676 2.47302 12.6617C2.4104 12.695 2.36271 12.7117 2.32994 12.7117V12.7616H2.42824V12.8116C2.42824 12.8419 2.41195 12.8571 2.37899 12.8571L2.42824 12.957V13.0571C2.16883 12.8207 2.03913 12.38 2.03913 11.7345C2.10466 11.062 2.13762 10.5801 2.13762 10.2892C2.13762 9.94701 2.10466 9.64543 2.03913 9.38481C2.03913 9.35467 2.05541 9.22427 2.08837 8.99399C2.08837 8.95163 2.07189 8.78794 2.03913 8.50329L2.08837 8.25784C2.05541 8.20308 2.03913 8.12133 2.03913 8.01239H2.08837C2.02556 7.83964 1.97806 7.59577 1.9451 7.28078H1.99434C1.59767 5.22324 1.24443 4.19477 0.934426 4.19477L0.835938 3.85378V3.80375C0.844856 3.73736 0.877621 3.70407 0.934426 3.70407H0.979017L1.07751 3.75391C1.07751 3.72062 1.09379 3.70407 1.12656 3.70407L1.07751 3.60853C1.08642 3.54175 1.11764 3.50846 1.17134 3.50846C1.23396 3.54175 1.28321 3.5585 1.31888 3.5585C1.31888 3.51004 1.36657 3.46158 1.46215 3.41312C1.65603 3.54924 1.75277 3.69639 1.75277 3.85378C1.84525 3.85378 1.98988 3.77203 2.18667 3.60853L2.32199 3.60381C2.32199 3.73402 2.45014 3.79922 2.70664 3.79922V3.89929H2.60835V3.9446C2.78128 3.9446 2.90944 3.99463 2.99299 4.0947L2.94821 3.99463V3.9446H3.04224C3.04224 4.00212 3.13918 4.14907 3.33286 4.38565C3.90847 5.82465 5.56805 8.2411 6.37321 11.2404C6.44184 11.2404 6.50602 11.3874 6.56554 11.6815C6.88776 11.3269 7.17682 10.2332 7.43332 8.40007C7.43332 8.36973 7.41704 8.35476 7.38427 8.35476C7.44088 7.56996 7.52134 7.17756 7.62565 7.17756C7.62565 7.214 7.64212 7.26246 7.67489 7.32313C7.60936 7.45334 7.5764 7.63359 7.5764 7.86387C7.5764 7.93656 7.59288 8.00176 7.62565 8.05928C7.59288 8.43809 7.54519 8.7318 7.48256 8.941C7.51533 9.16812 7.56302 9.28179 7.62565 9.28179H7.67489C7.67489 9.15158 7.7063 9.08637 7.76872 9.08637V8.60001C7.80459 8.60001 7.85384 8.58346 7.91646 8.54998C7.88369 8.48044 7.85073 8.33349 7.81797 8.10931C7.88059 8.07583 7.92828 8.05928 7.96124 8.05928L7.91646 7.81383C7.94631 7.81383 7.96124 7.79729 7.96124 7.7638H7.86721V7.66846C7.99537 7.66846 8.05954 7.2926 8.05954 6.54129C8.10432 6.32007 8.15202 6.17332 8.20262 6.10043C8.14019 6.10043 8.10878 6.05197 8.10878 5.95486V5.41412H8.05954V5.36882C8.05954 5.33553 8.07602 5.31878 8.10878 5.31878L8.05954 5.21871C8.13418 5.14602 8.19816 4.93407 8.25186 4.58264L8.20262 4.4871C8.26834 4.36595 8.30111 4.23555 8.30111 4.09628L8.25186 3.99621H8.35035V3.94617H8.25186V3.85083C8.40405 3.51753 8.62914 3.25533 8.92732 3.06445C9.21659 3.11922 9.36122 3.18422 9.36122 3.26006V3.35993C9.00332 3.50551 8.71406 3.78267 8.49343 4.19162L8.54268 4.29169L8.39494 5.36882H8.49343L8.39494 5.51419C8.39494 5.58688 8.41142 5.65209 8.44419 5.70961L8.35035 5.95486L8.39494 6.2003L8.35035 6.29584L8.39494 6.59132V6.7367C8.33251 7.05484 8.30111 7.23508 8.30111 7.27743C8.30111 7.35012 8.31759 7.41533 8.35035 7.47285C8.28482 7.63654 8.23558 7.71829 8.20262 7.71829L8.25186 7.81383C8.25186 7.97753 8.22065 8.05928 8.15803 8.05928L8.20262 8.15935L8.10878 8.30473C8.14155 8.48339 8.15803 8.6136 8.15803 8.69535C8.12507 8.69535 8.10878 8.7121 8.10878 8.74539H8.20262C8.20262 8.41819 8.28327 8.10774 8.44419 7.81383L8.39494 7.52288V7.47285C8.5262 7.47285 8.59192 7.34264 8.59192 7.08202H8.63671L8.59192 6.98215C8.66637 6.87597 8.71406 6.72922 8.735 6.54129C8.70224 6.48692 8.68576 6.40497 8.68576 6.29584H8.735L8.68576 6.2003L8.78424 6.05059V6.00489C8.78424 5.92925 8.76776 5.86405 8.735 5.80968C8.79762 5.5792 8.84531 5.46416 8.87808 5.46416C8.84531 5.42161 8.82884 5.33986 8.82884 5.21871C8.86179 5.21871 8.87808 5.20374 8.87808 5.17341L8.82884 4.97327C8.87362 4.82493 8.93779 4.74456 9.02116 4.73235L8.97657 4.63248C9.00643 4.57476 9.02116 4.50975 9.02116 4.43707H9.11965C9.08688 4.87654 9.0704 5.20217 9.0704 5.41412V5.75964C8.97502 5.75964 8.92732 5.79136 8.92732 5.85498C9.02271 5.85498 9.0704 6.01868 9.0704 6.34588H9.11965C9.2478 6.09432 9.31197 5.94737 9.31197 5.90502C9.27921 5.84139 9.26292 5.79293 9.26292 5.75964L9.31197 5.26875C9.27921 5.20512 9.26292 5.15666 9.26292 5.12337C9.36122 5.12337 9.41046 5.05836 9.41046 4.92776H9.5043V4.97327C9.37615 5.64598 9.31197 6.7564 9.31197 8.30473H9.26292C9.26292 8.33802 9.27921 8.35476 9.31197 8.35476L9.26292 8.60001V8.69535L9.45505 8.60001V8.64551C9.39243 9.30917 9.2478 10.3209 9.02116 11.6815C9.02116 12.0723 8.78114 12.6115 8.30111 13.2996C8.30111 13.4993 8.01184 13.613 7.43332 13.6401Z" fill="#1D1D1F"/>
<path d="M11.6822 12.4958H11.3959C11.3959 12.4321 11.2989 12.3669 11.1052 12.3003C10.6221 11.7791 10.3805 10.4248 10.3805 8.23727C10.3507 8.23727 10.3359 8.17227 10.3359 8.04186C10.3359 8.00857 10.3507 7.99183 10.3805 7.99183L10.3359 7.74658V7.30552C10.3359 7.27519 10.3507 7.26021 10.3805 7.26021C10.3507 7.19659 10.3359 7.14655 10.3359 7.11011L10.3805 5.93764H10.4298C10.4298 5.90435 10.4135 5.8876 10.3805 5.8876C10.4222 5.44536 10.4552 5.18475 10.479 5.10576C10.479 5.07247 10.4625 5.05592 10.4298 5.05592C10.4298 5.02243 10.4463 4.97397 10.479 4.91054C10.5118 4.08654 10.5281 3.43353 10.5281 2.95169C10.5281 2.41845 10.4641 1.73214 10.3359 0.892974C10.4759 0.632359 10.6205 0.501953 10.7696 0.501953C10.9546 0.501953 11.0665 0.5839 11.1052 0.7474C11.3408 0.802163 11.5494 0.965663 11.7315 1.23849C11.7315 1.32615 11.7642 1.42307 11.8297 1.52925L11.9238 1.48374H11.973C12.0356 1.92913 12.0669 2.173 12.0669 2.21535H12.1653V2.12001C12.3024 2.12001 12.3829 2.34714 12.4067 2.80179C12.4515 2.80179 12.5157 3.03049 12.599 3.4879C12.632 3.4879 12.6483 3.50464 12.6483 3.53793C12.6483 3.57122 12.632 3.58797 12.599 3.58797L12.7423 4.61506C12.7096 4.79097 12.6931 4.93773 12.6931 5.05592V5.59212C12.6931 5.66796 12.6781 5.73474 12.6483 5.79226C12.6781 5.85274 12.6931 5.90119 12.6931 5.93764C12.5767 7.1434 12.4814 7.74658 12.4067 7.74658L12.456 8.0919V8.97342C12.456 9.04611 12.4397 9.11131 12.4067 9.16883C12.4397 9.22655 12.456 9.29155 12.456 9.36444V9.41428C12.456 9.4781 12.4232 9.50982 12.3577 9.50982C12.3577 9.47653 12.3412 9.45978 12.3084 9.45978V9.50982L12.4067 9.65519V9.75526L12.2146 11.3231L11.973 11.7139C11.8656 11.7139 11.7687 11.7624 11.6822 11.8595C11.6822 11.8926 11.6985 11.9093 11.7315 11.9093L11.6822 12.4004V12.4958Z" fill="#1D1D1F"/>
<path fill-rule="evenodd" clip-rule="evenodd" d="M3.81411 26.3074L2.88844 26.2131L2.79853 26.2602C2.42124 26.1661 2.14408 26.0276 1.96704 25.8449C1.5669 25.5163 1.36702 25.2709 1.36702 25.1081C1.36702 25.0797 1.33563 24.9555 1.27265 24.7355V24.6928L1.31984 24.5985C1.2799 24.5985 1.1885 24.4758 1.04565 24.2302V24.093C1.04565 24.0616 1.15265 23.9688 1.36702 23.8145L1.31984 23.5834C1.85986 23.1837 2.2299 22.9837 2.42979 22.9837V23.0309C2.42979 23.1536 2.3213 23.3992 2.10414 23.7675V23.8145C2.1699 23.8145 2.33988 23.8604 2.61407 23.9517L3.39856 23.8617V23.9088C3.6042 23.8774 3.80427 23.8303 3.99858 23.7675L4.31995 23.8145C4.76561 23.7434 5.31993 23.4662 5.98293 22.9837C6.17148 22.8267 6.35576 22.5811 6.53577 22.2471C6.68996 22.0843 6.76705 21.93 6.76705 21.7844C5.05559 21.4161 4.1327 21.1848 3.99858 21.0907C3.99858 21.1532 3.967 21.1848 3.90421 21.1848C2.82138 20.9249 2.19126 20.6795 2.01404 20.4482C1.88271 20.4482 1.65124 20.2941 1.31984 19.9855C1.23977 19.977 1.07128 19.777 0.813996 19.3859C0.739875 19.3859 0.662782 19.279 0.582717 19.0645C0.45974 19.0645 0.398438 18.9104 0.398438 18.6021C0.398438 18.0882 0.551137 17.6412 0.856908 17.2615C1.04267 16.9474 1.25835 16.6862 1.50412 16.4777C1.64976 16.3322 1.74264 16.1792 1.78276 16.0194C2.25405 15.6796 2.5314 15.5098 2.61407 15.5098C3.30846 15.5811 3.8156 15.7038 4.13567 15.8779C4.84419 16.255 5.19863 16.609 5.19863 16.9402V17.3087H5.10426V17.3557L5.15144 17.45L4.91998 17.4928C4.81985 17.4928 4.58987 17.3701 4.22986 17.1243C3.69838 17.3414 3.37571 17.4956 3.26128 17.5872C3.23564 17.7327 3.03557 17.9169 2.66125 18.1395C2.66125 18.1909 2.50707 18.3452 2.19851 18.6021C2.01274 18.8819 1.91986 19.0504 1.91986 19.1076C2.53697 19.3844 3.55274 19.6614 4.96698 19.9386C6.24728 20.2469 7.03139 20.5553 7.32007 20.8636C8.24574 21.3233 8.70867 21.676 8.70867 21.9215H8.6143C8.6143 21.8414 8.44581 21.6888 8.10865 21.4631H8.01428V21.506C8.15435 21.883 8.37002 22.1299 8.66149 22.2471C8.66149 22.287 8.73858 22.4255 8.89295 22.6624C8.82998 22.6711 8.79858 22.701 8.79858 22.7524L8.84577 23.1679C8.84577 23.4022 8.66149 23.5862 8.29293 23.7206C8.29293 23.8204 8.15435 23.9745 7.87719 24.183C7.87719 24.3373 7.62993 24.5528 7.13579 24.8298C7.13579 24.8896 6.93572 25.0739 6.53577 25.3823C6.44437 25.4194 6.39849 25.4666 6.39849 25.5236H6.35149L6.26139 25.4766C6.26139 25.6992 5.96863 25.9149 5.38291 26.1232C5.38291 26.0291 5.35133 25.9819 5.28854 25.9819C5.1886 26.1217 5.01992 26.2145 4.78288 26.2602L4.50423 26.2131H4.41414C4.34559 26.2131 4.28429 26.2288 4.22986 26.2602L4.13567 26.2131C4.08125 26.2446 4.01994 26.2602 3.9514 26.2602L3.8613 26.2131L3.81411 26.3074ZM12.7279 25.7963H12.6335C12.3164 25.7963 12.1007 25.7506 11.9863 25.6592L11.802 25.7064C11.7535 25.7064 11.662 25.645 11.5278 25.5221L11.4335 25.5649C11.2193 25.5163 11.0192 25.3321 10.8334 25.0123L10.7393 25.0594H10.6492C10.0034 24.5285 9.68057 24.1744 9.68057 23.9973C9.15764 22.918 8.89627 21.6873 8.89627 20.3054C8.87342 20.3054 8.82624 19.8598 8.75472 18.9691H8.8019C8.73911 18.8118 8.70772 18.7049 8.70772 18.6477C8.73057 18.4621 8.76196 18.3693 8.8019 18.3693L8.52344 17.033C8.58047 17.033 8.62765 16.8945 8.66481 16.6175C8.7876 16.6175 8.84908 16.5861 8.84908 16.5234V16.4762H8.89627L9.03337 16.5705C9.09913 16.5705 9.19052 16.4777 9.30774 16.2921C9.34192 16.2921 9.38911 16.2763 9.44911 16.2449V16.3392L9.68057 16.2921C9.68057 16.3864 9.69488 16.4333 9.72348 16.4333C9.76621 16.402 9.84349 16.3864 9.95476 16.3864C9.95476 16.4575 10.0476 16.5031 10.2334 16.5234V16.5705L10.1864 16.6604C10.2492 16.6604 10.2806 16.6918 10.2806 16.7545H10.3235C10.3549 16.7545 10.4792 16.7231 10.6963 16.6604H10.8334V16.9858L10.7393 17.1228L10.8806 17.2171L10.7393 17.9068C10.7506 17.9696 10.782 18.0009 10.8334 18.0009C10.802 18.3607 10.7864 18.6221 10.7864 18.7847V18.8319L10.8334 19.2901H10.7864L10.8334 19.3844V19.4315C10.8334 19.9255 10.8791 20.8165 10.9705 22.1041H10.9235C10.9549 22.1756 11.0177 22.4225 11.1121 22.8452L11.0649 23.0765C11.1249 23.1764 11.1548 23.2677 11.1548 23.3505L11.1121 23.4448C11.2635 23.4448 11.3393 23.5989 11.3393 23.9073C11.3905 23.9073 11.4535 23.9986 11.5278 24.1815C11.6792 24.1815 12.0478 23.813 12.6335 23.0765C12.9735 22.5025 13.3121 21.5173 13.6493 20.1212V19.4742L13.6021 19.1531H13.6493L13.6021 19.063C13.6021 18.9919 13.6179 18.929 13.6493 18.8748C13.5579 17.6697 13.5122 16.9474 13.5122 16.7075C13.6235 16.559 13.7622 16.4361 13.9279 16.3392V16.202H14.0178V16.2921H14.1549C14.3123 16.0778 14.4507 15.9707 14.5707 15.9707L14.6179 16.0607L14.7122 16.0179H14.8021V16.1549H14.8493L15.0808 16.1079L15.3593 16.2921V16.4333H15.5435V16.3392C15.6037 16.3706 15.6494 16.3864 15.6808 16.3864C15.7408 16.3548 15.7865 16.3392 15.8179 16.3392C16.0351 16.539 16.1436 16.7846 16.1436 17.0757C16.1122 17.0757 16.0964 17.0915 16.0964 17.1228C16.1566 17.1343 16.1865 17.1657 16.1865 17.2171C16.0951 17.2886 16.0494 17.3955 16.0494 17.5385H16.0022L15.9123 17.26C15.8493 17.2713 15.8179 17.3027 15.8179 17.3541V18.0009C15.8179 18.2922 15.8021 18.6462 15.7707 19.063L15.8179 19.2901C15.6266 20.535 15.4423 21.3662 15.2651 21.7829C15.2335 21.7829 15.2179 21.7987 15.2179 21.8301V22.2456L15.2651 22.7039C15.1421 22.7039 15.0808 22.8281 15.0808 23.0765H15.0336C15.0336 23.1764 15.0951 23.5147 15.2179 24.0915H15.1707L15.2179 24.1815V24.4128C15.2179 24.4813 15.2023 24.5428 15.1707 24.597C15.2023 24.6569 15.2179 24.7026 15.2179 24.734C15.1493 24.734 15.0722 24.5812 14.9864 24.2758H14.9435C14.9435 24.3042 14.9279 24.3185 14.8965 24.3185C14.9565 24.6441 15.0336 24.9681 15.128 25.2907C15.0964 25.3509 15.0808 25.3966 15.0808 25.4279C15.0321 25.4279 14.9249 25.1051 14.7592 24.46H14.7122L14.665 24.5498V24.597H14.7592V24.8753H14.8493C14.8493 24.9068 14.8335 24.9224 14.8021 24.9224L14.8493 25.0123V25.1495L14.7592 25.1066C14.7592 25.1352 14.7436 25.1495 14.7122 25.1495C14.6179 24.9666 14.5094 24.6283 14.3864 24.1343H14.2965C14.2536 24.1343 14.1923 24.2728 14.1122 24.5498C14.0522 24.5498 13.8978 24.7197 13.6493 25.0594L13.6965 25.1495C13.6136 25.2521 13.3979 25.3449 13.0493 25.4279C12.8349 25.605 12.7279 25.7278 12.7279 25.7963ZM15.4424 26.5392H15.3053C15.2737 26.3136 15.2423 26.1751 15.2109 26.1237C15.2423 26.0725 15.2581 25.9954 15.2581 25.8926H15.3523V26.0766L15.3053 26.1666C15.3653 26.198 15.411 26.2136 15.4424 26.2136V26.2607L15.3523 26.3979C15.4123 26.4092 15.4424 26.4408 15.4424 26.492V26.5392ZM26.259 27.4985L26.0747 27.4086C26.0147 27.4372 25.9675 27.4515 25.9333 27.4515L25.7489 27.4086C25.6891 27.4372 25.6434 27.4515 25.6118 27.4515C25.6118 27.3717 25.5033 27.3103 25.2861 27.2674C25.2176 27.0873 25.0946 26.9347 24.9174 26.809C24.7346 26.4778 24.596 26.0167 24.5018 25.4256L24.5488 25.3313C24.5174 25.2713 24.5018 25.2256 24.5018 25.1943H24.5488C24.4946 25.0944 24.4331 24.6633 24.3645 23.9007H24.4117C24.3547 23.7152 24.2003 22.2703 23.9488 19.5664C23.9174 19.5664 23.8717 19.3195 23.8117 18.8254C23.8117 18.7941 23.8275 18.7482 23.8589 18.6883C23.8589 18.3686 23.6731 18.0144 23.3018 17.6262C23.3018 17.6059 23.2247 17.3904 23.0703 16.9792C23.1047 16.8422 23.2132 16.7352 23.396 16.6582H23.4431V16.7481C23.6603 16.6881 23.7831 16.6582 23.8117 16.6582H23.8589V16.9365H23.9488L23.9018 17.0263V17.0735C23.9646 17.0735 23.996 17.0893 23.996 17.1206L24.3645 16.8893H24.4117V16.9365C24.3803 16.9935 24.3645 17.0392 24.3645 17.0735C24.3961 17.0735 24.4117 17.0893 24.4117 17.1206C24.4717 17.0893 24.5174 17.0735 24.5488 17.0735C24.8174 17.0908 25.0946 17.3362 25.3803 17.8103C25.3803 18.0131 25.4875 18.3214 25.7019 18.7354C25.9188 20.7085 26.0275 21.785 26.0275 21.9649H26.0747C26.7747 21.8706 27.2976 21.8235 27.6433 21.8235H27.8276C28.1048 21.8235 28.2433 21.6551 28.2433 21.3181H28.2905L28.2433 21.2238V21.1811C28.3975 21.1811 28.5519 20.2572 28.7063 18.4098C28.6433 18.4098 28.6119 18.3799 28.6119 18.3199V18.0415C28.7776 18.0415 28.9006 17.9958 28.9805 17.9045H29.0748L29.1177 18.1358C29.0889 18.1358 29.0748 18.1501 29.0748 18.1785L29.1647 18.2256C29.1647 18.1942 29.1805 18.1785 29.2119 18.1785L29.1647 18.0886V18.0415C29.3676 18.0415 29.4906 17.9488 29.5333 17.7632H29.6277C29.6277 17.7973 29.6435 17.8445 29.6748 17.9045L29.7648 17.8575H29.8119C29.8119 17.9601 29.8275 18.0372 29.8591 18.0886L29.949 18.0415C30.012 18.0502 30.0434 18.0816 30.0434 18.1358V18.1785H29.949V18.2256H30.0906L30.1333 18.1358C30.1049 18.0756 30.0906 18.0288 30.0906 17.9945H30.1805C30.3663 18.1571 30.4591 18.2956 30.4591 18.4098H30.5962L30.6904 18.3626L30.6434 18.2728C30.652 18.21 30.6821 18.1785 30.7333 18.1785C30.962 18.1785 31.0863 18.2256 31.1064 18.3199V18.4098C31.1064 18.4727 31.0592 18.5041 30.9648 18.5041C31.0878 18.824 31.1491 19.0237 31.1491 19.1037C30.9977 19.7149 30.9221 20.4829 30.9221 21.4082L31.012 21.4553C31.012 21.4238 31.0276 21.4082 31.0592 21.4082C31.0592 21.4709 31.0748 21.5021 31.1064 21.5021L31.2905 21.4082V21.4553C31.2905 21.5467 31.1677 21.6079 30.9221 21.6393V21.9178H31.2435L31.8435 21.7806C31.8435 21.8093 31.8593 21.8235 31.8905 21.8235C31.8905 21.7637 32.0135 21.718 32.2592 21.6865V21.7336C32.2592 21.7735 32.0592 21.8806 31.6592 22.0548C31.6592 22.1775 31.382 22.316 30.8277 22.4703V22.5644L31.0592 22.5174C31.0906 22.5174 31.1064 22.533 31.1064 22.5644C31.1664 22.533 31.2121 22.5174 31.2435 22.5174H31.3376V22.5644C30.9663 22.61 30.7805 22.6715 30.7805 22.7485C30.7805 22.8401 30.7647 22.8857 30.7333 22.8857L30.7805 22.9799C30.7205 23.2398 30.6904 23.3925 30.6904 23.4382L30.7333 23.7167C30.7333 23.9994 30.6419 24.706 30.4591 25.8368H30.3648V25.7469H30.3221V26.3464H30.1805L29.9962 26.2094C29.9962 26.2608 29.9191 26.3993 29.7648 26.6248C29.7648 26.9533 29.6734 27.1374 29.4906 27.1775C29.4906 27.2689 29.3362 27.3145 29.0276 27.3145H28.9805C28.9805 27.2232 28.9348 27.1775 28.8434 27.1775H28.7962V26.809C28.7962 26.7377 28.7806 26.6763 28.749 26.6248C28.749 26.5935 28.7648 26.5777 28.7962 26.5777C28.7962 26.5149 28.7806 26.4834 28.749 26.4834C28.8205 25.3155 28.882 24.7318 28.9335 24.7318L28.8905 24.6375C28.9505 24.426 28.9805 24.2421 28.9805 24.085V23.7167L29.0276 23.4854C28.9533 23.4254 28.8918 23.3955 28.8434 23.3955C28.389 23.4869 28.0804 23.5624 27.9175 23.6224V23.9007C27.8376 23.9007 27.7304 24.0705 27.5961 24.4104L27.1804 25.3313C27.1204 25.3626 27.0747 25.3784 27.0433 25.3784V25.7469C27.0433 25.821 26.9662 25.9595 26.8118 26.1622C26.8118 26.3449 26.7804 26.4364 26.7176 26.4364L26.7646 26.5305C26.5189 26.7932 26.3961 26.9475 26.3961 26.9934V27.2245L26.4433 27.3145C26.3403 27.3145 26.2789 27.3758 26.259 27.4985ZM28.485 21.4042C28.6306 20.9389 28.7378 20.6918 28.8064 20.6633C28.775 20.5405 28.7293 20.4334 28.6693 20.3421L28.7592 20.2051H28.7165C28.665 20.2051 28.602 20.3122 28.5277 20.5262L28.5749 20.7576C28.5606 20.8803 28.5149 20.9417 28.4378 20.9417V20.9887L28.485 21.0789H28.3906V21.31C28.4021 21.373 28.4335 21.4042 28.485 21.4042ZM29.6331 25.1935C29.7074 25.1935 29.7531 25.039 29.7702 24.7307C29.7416 24.6709 29.7275 24.6252 29.7275 24.5936H29.8174V24.4097C29.8174 24.3467 29.7873 24.3154 29.7275 24.3154L29.7702 24.084V23.6257C29.7702 23.5943 29.786 23.5785 29.8174 23.5785L29.7702 23.4844C29.7702 23.453 29.786 23.4072 29.8174 23.3474L29.7275 22.9319C29.7559 22.9319 29.7702 22.9161 29.7702 22.8848H29.6803V23.2104C29.6803 23.2789 29.6645 23.3402 29.6331 23.3944C29.6331 23.4259 29.6489 23.4415 29.6803 23.4415L29.6331 23.6686V23.7627L29.6803 24.084H29.6331L29.6803 24.1784V24.2682C29.6803 24.331 29.6489 24.3625 29.5859 24.3625C29.6489 24.4624 29.6803 24.5552 29.6803 24.6408V24.8678L29.6331 25.1935ZM29.3051 25.6045C29.3653 25.3732 29.3952 25.2347 29.3952 25.189C29.3952 25.1576 29.3794 25.1418 29.348 25.1418L29.3952 24.9105V24.4052L29.348 23.8483H29.3952L29.348 23.7582V23.437C29.348 23.4057 29.3638 23.3899 29.3952 23.3899C29.3638 23.35 29.348 23.2414 29.348 23.0645C29.288 23.076 29.2581 23.1073 29.2581 23.1588V23.4799C29.2581 23.657 29.2423 23.7656 29.2109 23.8054C29.2423 23.9712 29.2581 24.1095 29.2581 24.221V25.6045H29.3051ZM27.2348 24.4512C27.2348 24.3514 27.342 24.1371 27.5562 23.8087L27.7876 23.3463V23.252H27.7406C27.5634 23.4491 27.4248 23.696 27.3249 23.9931C27.3048 23.9931 27.2434 24.0701 27.1406 24.2244V24.4512H27.2348ZM26.168 25.1921C26.351 24.9919 26.6895 24.4838 27.1838 23.6672C27.1838 23.6386 27.1996 23.6243 27.231 23.6243V23.7613H27.3211C27.3211 23.6328 27.3525 23.4787 27.4153 23.2988H27.3681V23.346C27.3367 23.346 27.3211 23.3302 27.3211 23.2988C26.8152 23.4843 26.5238 23.5771 26.4467 23.5771C26.2381 23.4858 26.1153 23.4401 26.0781 23.4401V23.5771C26.0781 23.6456 26.0924 23.7071 26.1209 23.7613C26.1209 23.7926 26.1067 23.8084 26.0781 23.8084C26.1067 23.9484 26.1366 24.4096 26.168 25.1921ZM33.454 27.1803H33.1798C33.1798 27.1203 33.0869 27.0588 32.9012 26.9961C32.4383 26.5049 32.207 25.2285 32.207 23.1669C32.1784 23.1669 32.1641 23.1057 32.1641 22.9828C32.1641 22.9514 32.1784 22.9356 32.207 22.9356L32.1641 22.7045V22.2888C32.1641 22.2604 32.1784 22.2461 32.207 22.2461C32.1784 22.1862 32.1641 22.139 32.1641 22.1047L32.207 20.9997H32.254C32.254 20.9683 32.2384 20.9525 32.207 20.9525C32.2469 20.5358 32.2783 20.2902 32.3012 20.2159C32.3012 20.1843 32.2856 20.1687 32.254 20.1687C32.254 20.1374 32.2698 20.0915 32.3012 20.0317C32.3327 19.2552 32.3483 18.6398 32.3483 18.1857C32.3483 17.6831 32.2869 17.0363 32.1641 16.2455C32.2984 15.9999 32.437 15.877 32.5798 15.877C32.757 15.877 32.864 15.9542 32.9012 16.1083C33.1269 16.1599 33.327 16.314 33.5012 16.5711C33.5012 16.6537 33.5328 16.745 33.5956 16.8451L33.6855 16.8022H33.7327C33.7927 17.222 33.8228 17.452 33.8228 17.4919H33.917V17.4019C34.0483 17.4019 34.1256 17.6159 34.1484 18.0444C34.1913 18.0444 34.2528 18.2599 34.3327 18.691C34.3641 18.691 34.3799 18.7068 34.3799 18.7381C34.3799 18.7695 34.3641 18.7853 34.3327 18.7853L34.4698 19.7533C34.4384 19.919 34.4228 20.0574 34.4228 20.1687V20.6741C34.4228 20.7455 34.4083 20.8085 34.3799 20.8627C34.4083 20.9197 34.4228 20.9654 34.4228 20.9997C34.3113 22.136 34.2199 22.7045 34.1484 22.7045L34.1956 23.0299V23.8607C34.1956 23.9292 34.1798 23.9907 34.1484 24.0449C34.1798 24.0993 34.1956 24.1605 34.1956 24.2292V24.2762C34.1956 24.3363 34.164 24.3662 34.1012 24.3662C34.1012 24.3348 34.0856 24.3191 34.054 24.3191V24.3662L34.1484 24.5032V24.5975L33.9641 26.0753L33.7327 26.4434C33.6299 26.4434 33.5371 26.4891 33.454 26.5806C33.454 26.612 33.4698 26.6276 33.5012 26.6276L33.454 27.0904V27.1803ZM18.5625 17.713C18.9901 17.5541 19.3916 17.4212 19.767 17.3145H19.8081V17.3924C19.6738 17.4 19.6067 17.4273 19.6067 17.4747C19.3656 17.4895 19.2448 17.543 19.2448 17.6349H19.1256C19.036 17.6349 18.9429 17.6746 18.846 17.7541H18.5625V17.713ZM23.1482 23.8075H23.1891C23.1891 23.7504 23.1493 23.6696 23.0698 23.5653V23.4461L23.1072 23.364L22.8685 22.9617C22.426 22.5143 21.9164 22.1131 21.3396 21.758C20.7805 21.4276 20.4994 21.2399 20.497 21.1953C20.2757 21.1008 19.6865 20.7407 18.7294 20.1147C18.205 19.8189 17.8444 19.5109 17.6481 19.1903C17.6605 19.0836 17.7003 19.0301 17.7673 19.0301C17.7673 18.8513 18.5866 18.5617 19.2828 18.276C19.6854 18.1667 19.8867 18.0735 19.8867 17.9964C20.5804 17.7655 20.9681 17.6177 21.0502 17.5531C21.4529 17.4636 21.6543 17.3966 21.6543 17.3519C21.7139 17.3519 21.7674 17.4464 21.8146 17.6352L21.7736 17.7133C21.7736 17.7681 21.8133 17.7952 21.8928 17.7952V17.8362C21.8133 17.8362 21.7736 17.8761 21.7736 17.9556C21.8009 18.0896 21.8817 18.2636 22.016 18.4773H22.1352L22.0942 18.3954H22.2136C22.3305 18.0475 22.4249 17.8735 22.4969 17.8735V17.7952C22.4969 17.6636 22.5367 17.5295 22.6162 17.3927C22.5889 17.3457 22.5753 17.2921 22.5753 17.2327C22.5629 17.1408 22.3491 16.9668 21.9339 16.711L21.2516 16.5098H21.2105C21.0266 16.5098 20.8265 16.5506 20.6103 16.6327C19.8568 16.7916 19.3748 16.9518 19.1634 17.1135L19.0814 17.0725H19.003C18.8663 17.1792 18.6923 17.2462 18.481 17.2737L17.0752 17.9146C16.496 18.2127 16.174 18.5209 16.1094 18.8387C16.1094 18.8784 16.1764 19.0524 16.3107 19.3604L16.2697 19.4424C16.2697 19.4649 16.3232 19.5841 16.4302 19.8002C16.4302 19.8722 16.4973 19.953 16.6316 20.0424C16.6316 20.1195 16.7519 20.2797 16.9931 20.5231C17.294 20.7045 17.5214 20.8784 17.6756 21.0447C17.944 21.0919 18.0783 21.1591 18.0783 21.246C18.6053 21.5343 18.8998 21.7218 18.962 21.8089C19.6406 22.1839 20.3367 22.6248 21.0502 23.1318C21.5051 23.3651 21.7327 23.5267 21.7327 23.6161C21.4566 23.8371 20.64 24.0112 19.2828 24.1378C19.2828 24.1105 19.2691 24.0968 19.2416 24.0968C19.1944 24.1241 19.1409 24.1378 19.0814 24.1378H17.5153C17.0876 24.1378 16.8738 24.298 16.8738 24.6185V24.7378C16.9758 24.7378 17.0428 24.8323 17.0752 25.0209L17.3139 25.1813C17.4283 25.2606 17.5089 25.3005 17.5563 25.3005C17.7079 25.4073 17.8147 25.4605 17.8769 25.4605C17.8769 25.5974 18.1318 25.6919 18.6414 25.744V25.7812L18.6003 25.863C18.819 25.863 18.9533 25.8892 19.003 25.9414H19.1223L19.3647 25.9041L19.4429 25.9414C19.8284 25.9091 20.1626 25.8695 20.4461 25.8222C20.4461 25.8495 20.4598 25.863 20.4871 25.863C21.0168 25.7986 21.5523 25.6644 22.0942 25.4605C22.2658 25.421 22.4137 25.2471 22.538 24.9391H22.8176L22.8997 24.6595V24.5366C22.8997 24.4744 23.2303 23.9839 23.1482 23.8075Z" fill="#1D1D1F"/>
</svg>
