<svg width="24" height="24" viewBox="0 0 24 24" fill="none" xmlns="http://www.w3.org/2000/svg">
<path fill-rule="evenodd" clip-rule="evenodd" d="M21.4014 12.2206C21.8171 12.2206 22.1541 11.8836 22.1541 11.468C22.1541 6.06442 17.9353 1.8457 12.5318 1.8457C12.1161 1.8457 11.7792 2.18266 11.7792 2.59832C11.7792 3.01397 12.1161 3.35093 12.5318 3.35093C17.104 3.35093 20.6488 6.89573 20.6488 11.468C20.6488 11.8836 20.9858 12.2206 21.4014 12.2206ZM9.87067 9.51666C10.7524 8.63492 10.7524 7.20534 9.87067 6.32359L7.74195 4.19487C6.86021 3.31313 5.43062 3.31313 4.54888 4.19487L2.50751 6.23625C2.06195 6.68181 1.82285 7.29329 1.84799 7.9229C1.9753 11.1091 3.59951 14.2439 6.6776 17.322C9.75567 20.4 12.8904 22.0242 16.0766 22.1516C16.7062 22.1767 17.3177 21.9376 17.7633 21.4921L19.8047 19.4507C20.6864 18.5689 20.6864 17.1393 19.8047 16.2576L17.676 14.1289C16.7942 13.2471 15.3646 13.2471 14.4829 14.1289L13.3354 15.2764C13.2459 15.3659 13.1038 15.3747 13.0039 15.297L12.1067 14.5992C11.0957 13.8129 10.1867 12.9038 9.40039 11.8929L8.7025 10.9956C8.62483 10.8957 8.63367 10.7537 8.72314 10.6642L9.87067 9.51666ZM3.57194 7.30049L5.61331 5.25911C5.90723 4.96519 6.38375 4.96519 6.67767 5.25911L8.80638 7.38783C9.10029 7.68175 9.10029 8.15827 8.80638 8.45219L7.65885 9.59972C7.03261 10.226 6.97069 11.2205 7.51442 11.9196L8.2123 12.8169C9.07528 13.9264 10.0731 14.9242 11.1826 15.7872L12.0799 16.4851C12.779 17.0288 13.7735 16.9669 14.3998 16.3406L15.5473 15.1931C15.8412 14.8992 16.3178 14.8992 16.6117 15.1931L18.7404 17.3218C19.0343 17.6157 19.0343 18.0923 18.7404 18.3862L16.699 20.4276C16.5505 20.5761 16.3466 20.6558 16.1368 20.6474C13.3689 20.5368 10.5724 19.0878 7.74202 16.2575C4.91166 13.4271 3.46269 10.6306 3.35209 7.86271C3.34371 7.65284 3.42341 7.44901 3.57194 7.30049ZM18.9607 11.8228C18.9607 12.2384 18.6238 12.5754 18.2081 12.5754C17.7924 12.5754 17.4555 12.2384 17.4555 11.8228C17.4555 9.19027 14.8092 6.54402 12.1767 6.54402C11.7611 6.54402 11.4241 6.20706 11.4241 5.79141C11.4241 5.37575 11.7611 5.03879 12.1767 5.03879C15.6406 5.03879 18.9607 8.35895 18.9607 11.8228Z" fill="#FF6633"/>
</svg>
