<svg width="45" height="44" viewBox="0 0 45 44" fill="none" xmlns="http://www.w3.org/2000/svg">
<path fill-rule="evenodd" clip-rule="evenodd" d="M12.1299 14.4581C12.3196 14.2461 12.5906 14.125 12.875 14.125H32.125C32.4094 14.125 32.6804 14.2461 32.8701 14.4581C33.0598 14.67 33.1503 14.9527 33.1189 15.2354L30.3689 39.9854C30.3126 40.4919 29.8846 40.875 29.375 40.875H15.625C15.1155 40.875 14.6874 40.4919 14.6311 39.9854L11.8811 15.2354C11.8497 14.9527 11.9402 14.67 12.1299 14.4581ZM13.9923 16.125L16.52 38.875H28.48L31.0077 16.125H13.9923Z" fill="#86868B"/>
<path fill-rule="evenodd" clip-rule="evenodd" d="M9.125 8.25C9.125 7.69772 9.57272 7.25 10.125 7.25H34.875C35.4273 7.25 35.875 7.69772 35.875 8.25V15.125C35.875 15.6773 35.4273 16.125 34.875 16.125H10.125C9.57272 16.125 9.125 15.6773 9.125 15.125V8.25ZM11.125 9.25V14.125H33.875V9.25H11.125Z" fill="#86868B"/>
<path d="M30.75 26.125C30.75 30.6813 27.0563 34.375 22.5 34.375C17.9437 34.375 14.25 30.6813 14.25 26.125C14.25 21.5687 17.9437 17.875 22.5 17.875C27.0563 17.875 30.75 21.5687 30.75 26.125Z" fill="#9E9E9E"/>
<path fill-rule="evenodd" clip-rule="evenodd" d="M11.9051 1.1327C12.039 0.596906 12.582 0.271145 13.1178 0.405094L18.6178 1.78009C18.901 1.8509 19.1391 2.04192 19.2697 2.30302L22.0197 7.80302C22.2667 8.297 22.0664 8.89767 21.5724 9.14466C21.0785 9.39165 20.4778 9.19143 20.2308 8.69745L17.6865 3.60883L12.6327 2.34538C12.0969 2.21143 11.7711 1.6685 11.9051 1.1327Z" fill="#86868B"/>
</svg>
