<svg width="67" height="28" viewBox="0 0 67 28" fill="none" xmlns="http://www.w3.org/2000/svg">
<path fill-rule="evenodd" clip-rule="evenodd" d="M26.6734 9.74149C26.3147 8.90382 25.9162 7.97337 24.2539 8.54307V4.02299C24.2539 1.68888 20.3077 0 15.5 0C10.6923 0 6.74609 1.68888 6.74609 4.02299V23.977C6.74609 26.3111 10.6923 28 15.5 28C20.3077 28 24.2539 26.3111 24.2539 23.977V11.9349C25.7368 12.1295 26.0567 13.292 25.7798 14.4943L27.3057 14.7357C27.648 12.531 26.8959 11.0646 24.2539 10.9498V10.0303C25.269 9.54269 25.8897 10.3397 26.5262 11.1569C27.048 11.8271 27.5805 12.5108 28.3497 12.5108C29.4741 12.5108 30.3575 11.9476 31 10.8211L29.6347 8.97057C29.367 10.2043 28.7245 10.8211 27.7072 10.8211C27.1358 10.8211 26.9135 10.3021 26.6734 9.74149ZM17.8336 15.0132C17.0554 14.8243 16.2553 14.6301 15.4678 14.6301C14.6676 14.6301 13.8591 14.8283 13.0756 15.0205C11.03 15.5222 9.15435 15.9822 8.03964 12.7628C6.67993 8.83547 9.78388 9.70094 12.614 10.49C13.7121 10.7962 14.769 11.0909 15.5079 11.0897C16.218 11.0885 17.2376 10.8124 18.3038 10.5238C21.1095 9.76413 24.2376 8.91722 22.896 12.7628C21.7768 15.9705 19.8808 15.5102 17.8336 15.0132ZM11.561 12.1024C11.2163 11.9448 10.875 11.8 10.5529 11.6952C10.5079 12.2638 10.7539 12.7927 11.3026 13.308C11.7816 13.7579 12.2329 13.8104 12.7169 13.4217C12.8764 13.2464 13.0146 13.0486 13.1315 12.8283C12.9346 12.746 12.7296 12.6526 12.5202 12.5544C12.5257 12.5881 12.5285 12.6226 12.5285 12.6578C12.5285 13.0133 12.2408 13.3015 11.886 13.3015C11.5312 13.3015 11.2435 13.0133 11.2435 12.6578C11.2435 12.4211 11.371 12.2142 11.561 12.1024ZM8.67356 12.2555C8.88088 11.6323 9.34034 11.4695 9.92216 11.5447C9.82405 12.3461 10.1423 13.1005 10.8632 13.7776C11.0709 13.9728 11.2811 14.1157 11.4921 14.2074C11.1549 14.3234 10.7776 14.3969 10.3601 14.4279C11.9924 14.7345 13.163 14.2865 13.872 13.0837C14.5529 13.248 15.0181 13.0875 15.0181 12.175C14.7811 13.125 13.7016 12.4727 12.4961 11.7443C10.8427 10.7453 8.95224 9.60307 8.67356 12.2555ZM18.4752 12.5413C18.264 12.65 18.0568 12.7519 17.857 12.8373C17.9743 13.0593 18.1132 13.2585 18.2737 13.4349C18.7578 13.8236 19.2091 13.7711 19.6881 13.3213C20.2626 12.7817 20.5052 12.2273 20.4295 11.6281C20.0828 11.7314 19.7213 11.8969 19.3594 12.0799C19.5875 12.1787 19.7472 12.4062 19.7472 12.671C19.7472 13.0265 19.4595 13.3147 19.1047 13.3147C18.7498 13.3147 18.4622 13.0265 18.4622 12.671C18.4622 12.6266 18.4667 12.5832 18.4752 12.5413ZM16.1267 12.671C16.3694 13.0275 16.7065 13.1229 17.102 13.0683C17.8092 14.2926 18.9854 14.7502 20.6306 14.4411C20.2131 14.4101 19.8357 14.3366 19.4986 14.2206C19.7096 14.1289 19.9197 13.986 20.1275 13.7908C20.8604 13.1025 21.1771 12.3343 21.0633 11.5179C21.5537 11.5067 21.9887 11.7045 22.3171 12.2687C22.0048 9.38655 20.2164 10.5537 18.5476 11.6428C17.6076 12.2562 16.7055 12.8449 16.1267 12.671ZM15.8055 11.4641C15.8055 11.9127 16.0464 12.2687 16.448 12.3492C16.0464 12.4296 15.5646 12.1078 15.8055 11.4641ZM23.1295 4.02299C23.1295 5.59931 19.7401 7.08046 15.5 7.08046C11.2599 7.08046 7.87045 5.59931 7.87045 4.02299C7.87045 2.44667 11.2599 0.965517 15.5 0.965517C19.7401 0.965517 23.1295 2.44667 23.1295 4.02299Z" fill="#1D1D1F"/>
<ellipse cx="15.5002" cy="4.02277" rx="3.77461" ry="1.6092" fill="#FF6633"/>
<path d="M46.025 2.66602C46.3418 2.78677 46.5223 2.9611 46.5663 3.18922L46.6448 3.12756L46.7716 3.10215L46.7804 3.14667L46.7569 3.23886L47.1809 3.15435L47.7028 3.32179L47.7588 3.39861L47.6321 3.42383L47.6406 3.46795C47.7573 3.75969 47.9324 4.05498 48.1658 4.3542C48.5336 4.87977 48.7817 5.47546 48.9103 6.14108L49.0278 6.74898C49.115 6.73145 49.2876 7.16246 49.5452 8.04182L49.5873 8.25929C49.5931 8.28864 49.5813 8.30637 49.5522 8.31208L49.6123 8.38812C49.6381 8.52227 49.6235 8.75097 49.5679 9.07403C49.7178 9.2393 49.8164 9.44397 49.8636 9.68824L49.8808 9.77669L49.9638 9.76014C50.022 9.74852 50.057 9.54641 50.0689 9.15401L50.1125 9.14534L50.0518 9.06536L50.0268 8.93653C50.1427 8.69877 50.1712 8.00202 50.1123 6.8459C50.1617 6.70505 50.1962 6.42927 50.2156 6.01855C50.3475 5.42345 50.4797 5.03617 50.6123 4.85652L50.6559 4.84785C50.6751 4.79092 50.6784 4.73045 50.666 4.66623L50.7492 4.64949L50.7515 4.87464C50.844 4.85613 50.9211 4.64574 50.9834 4.2431L50.9747 4.19878L51.0666 4.22655L51.058 4.18223C51.0289 4.18814 51.0115 4.17612 51.0057 4.14677C51.0507 4.13771 51.1034 4.09812 51.1637 4.0274C51.1689 4.05419 51.1848 4.06502 51.2112 4.0597C51.345 3.67341 51.4964 3.46342 51.6654 3.42974L51.7091 3.42107L51.7424 3.59422L51.4423 4.1056L51.3504 4.07783L51.2197 4.10403L51.2282 4.14835L51.3987 4.11427L51.4157 4.20291C51.2494 4.40601 51.1697 4.52657 51.1771 4.56399C51.0817 4.99284 50.971 5.94586 50.8451 7.42288L50.8537 7.4672L50.8932 7.45932C51.0057 7.16108 51.0636 6.77321 51.0675 6.29571L51.2075 5.63659L51.2549 5.62705C51.2603 5.50642 51.2854 5.44167 51.3306 5.43271L51.3741 5.42385C51.388 5.49634 51.4313 5.56312 51.5034 5.62399L51.514 5.6788C51.5336 5.66725 51.5507 5.66003 51.5652 5.65708L51.5739 5.7014C51.5307 5.93286 51.4979 6.22381 51.4751 6.57386L51.5187 6.56519C51.5848 6.55219 51.6259 6.30418 51.6424 5.82156C51.8139 5.78729 51.9194 5.49575 51.9588 4.94733L52.046 4.9298C52.0578 4.99165 52.0375 5.19081 51.9846 5.52746C52.0559 5.51308 52.1092 5.56233 52.1447 5.6752L52.1433 5.90134C52.1889 5.98132 52.2263 6.01855 52.2554 6.01264L52.2794 6.81891C52.2967 6.90736 52.3475 6.94321 52.432 6.92647L52.4398 6.96665C52.4605 7.99651 52.4252 9.18927 52.3335 10.5455C52.2389 11.0494 52.0545 11.7773 51.7806 12.7293C51.5697 13.3122 51.4497 13.6065 51.4206 13.6124L51.1794 13.7484C51.167 13.6839 51.0873 13.6552 50.9405 13.6623C50.9539 13.732 50.8209 13.8029 50.5415 13.8756C50.4101 13.7206 50.2569 13.616 50.0817 13.5618C50.0739 13.5216 50.0221 13.4873 49.9262 13.459L49.8866 13.4671L49.9037 13.5555C49.6604 13.3755 49.5349 13.2655 49.5272 13.2254C48.9529 12.3978 48.6276 11.7869 48.5514 11.3924C48.4409 10.9629 48.3203 10.5662 48.1896 10.202L48.2168 10.1088L47.9787 9.34528L48.0223 9.33662L47.9616 9.25684L47.8106 8.47578L47.6877 8.05304L47.5134 8.08791C47.527 8.15764 47.4979 8.31248 47.4264 8.55261L47.5134 8.53527C47.4917 8.87685 47.4886 9.08782 47.5043 9.16839C47.5307 9.16307 47.5467 9.17509 47.5524 9.20483C47.4599 9.22315 47.4424 9.43708 47.4996 9.84642L47.5851 10.0552C47.5704 10.2197 47.5359 10.3464 47.4818 10.4354C47.4874 10.4648 47.5049 10.4768 47.534 10.4709C47.5557 10.8958 47.5493 11.1672 47.5146 11.2858C47.5514 11.3343 47.5727 11.3745 47.5791 11.4066C47.494 11.5909 47.444 12.0204 47.4291 12.6949C47.4006 13.0018 47.3717 13.158 47.3426 13.1637L47.216 13.1889C47.1536 13.533 47.0562 13.7184 46.9242 13.7446C46.8597 13.6376 46.8063 13.5884 46.7641 13.5969L46.6768 13.6142L46.4707 13.6973C46.4457 13.5685 46.3011 13.5082 46.0367 13.5163L46.0382 13.2904C46.0101 13.1454 45.9395 13.0843 45.8259 13.107L45.7751 12.8454C45.7478 12.7029 45.6627 12.6462 45.5202 12.6748C45.3936 12.02 45.4124 10.8903 45.5766 9.2856C45.571 9.25585 45.5535 9.24423 45.5244 9.24994L45.5237 8.79864L45.6194 8.82563L45.5688 8.56383C45.6664 8.54433 45.6981 8.40289 45.6636 8.13932L45.6053 7.83754C45.6712 7.82434 45.6941 7.71521 45.6737 7.51034L45.5999 7.34113C45.6095 7.25012 45.6291 7.20166 45.658 7.19556C45.6524 7.1662 45.6349 7.15419 45.6059 7.1601C45.5888 6.91544 45.5935 6.70545 45.62 6.53013C45.5801 6.4797 45.557 6.43833 45.5506 6.40622C45.601 6.36821 45.6406 6.34634 45.6696 6.34063C45.6266 6.27405 45.5708 6.13458 45.5025 5.92242C45.5394 5.91494 45.5793 5.81644 45.6221 5.62674C45.5822 5.57631 45.5595 5.53633 45.5537 5.50658L45.5973 5.49791L45.5366 5.41813C45.5661 4.6487 45.5349 3.79909 45.443 2.8699C45.5351 2.79307 45.6433 2.74225 45.7674 2.71743L45.8942 2.69202C45.9232 2.68631 45.9407 2.69812 45.9463 2.72767L46.025 2.66602ZM51.3984 5.02987L51.4242 5.16264C51.3687 5.17387 51.3491 5.22233 51.3658 5.30802L51.3222 5.31668C51.3166 5.28733 51.2937 5.24734 51.2538 5.19672C51.341 5.17938 51.3761 5.1262 51.3588 5.03775L51.3984 5.02987ZM50.6559 4.84785L50.673 4.9365L50.6458 5.02948L50.7414 5.05646L50.785 5.0478L50.7765 5.00347L50.6893 5.02081L50.7166 4.92783L50.7081 4.88331C50.7023 4.85396 50.685 4.84194 50.6559 4.84785Z" fill="#1D1D1F"/>
<path d="M53.2636 2.081L53.5003 2.12965L53.51 2.0806L53.8291 2.19663L53.8204 2.24135C53.7267 2.22204 53.6736 2.24509 53.6606 2.31069L53.7669 2.28133L53.8107 2.2902L53.801 2.33925L53.6806 2.46315C53.6713 2.51063 53.7085 2.56756 53.7929 2.63434L53.8892 2.65404C53.9063 2.56775 53.9658 2.51358 54.0676 2.49113L54.0763 2.44661L54.2649 2.48502C54.2549 2.53545 54.428 2.73638 54.7843 3.08721C55.0654 3.43529 55.3262 3.938 55.5672 4.59614C55.7995 5.57379 55.8935 6.17559 55.8487 6.40134L55.8004 6.39129C55.8572 6.93458 55.8948 7.5742 55.9135 8.31054C55.8691 8.36649 55.8431 8.41199 55.8361 8.44784C55.9327 8.46735 55.9579 8.75534 55.9115 9.31164L55.8448 9.39516L55.7857 10.6856C55.6771 10.9108 55.6184 11.0471 55.6089 11.0946L55.5998 11.3942L55.6436 11.4031L55.7498 11.3737L55.7304 11.4718L55.6637 11.5555C55.6957 11.562 55.7087 11.5817 55.7023 11.6144C55.6701 11.6079 55.6508 11.6207 55.6444 11.6534L55.7389 11.6729C56.1461 11.0858 56.4404 10.6126 56.6219 10.2531C56.6219 10.1834 56.7188 10.0699 56.9127 9.91232L57.6327 8.29879C57.6 8.28086 57.5835 8.16563 57.5835 7.95347C57.8101 7.46573 57.9548 7.22186 58.0174 7.22186C58.253 6.70063 58.6392 5.59021 59.176 3.89059L59.6097 2.8635C59.5769 2.79968 59.5606 2.75122 59.5606 2.71792C59.6799 2.71792 59.8557 2.57097 60.0884 2.27707H60.2852L60.3299 2.47248H60.3792C60.4447 2.47248 60.4775 2.43919 60.4775 2.37241L60.9562 2.42244H61.0545C61.0545 2.51956 61.0859 2.56802 61.1485 2.56802H61.1977C61.1977 2.4709 61.2305 2.42244 61.2962 2.42244H61.3453C61.4079 2.4315 61.4393 2.4648 61.4393 2.52251L61.5376 2.47248H61.5824V2.66789H61.6807C61.7435 2.66789 61.7747 2.6346 61.7747 2.56802V2.52251L61.7299 2.42244L61.9715 2.37241H62.0655L62.0163 2.47248V2.61805C62.0818 2.61805 62.1146 2.68306 62.1146 2.81346H62.4994C62.4994 2.84675 62.4829 2.8635 62.4502 2.8635C62.4651 3.027 62.5141 3.10875 62.5977 3.10875V3.3995C62.6155 3.74817 62.7109 3.99342 62.8841 4.13584C62.8841 4.15101 62.9331 4.31471 63.0316 4.62674L63.1256 4.5767H63.1749L63.367 5.31285C63.455 5.31285 63.5025 5.39543 63.5092 5.56074L63.5101 5.6038H63.6578C63.6607 5.78857 63.7563 6.14768 63.9442 6.68112C63.9112 6.85979 63.8949 6.99 63.8949 7.07175L63.9932 7.12179C63.9932 7.0885 64.0097 7.07175 64.0425 7.07175C64.0425 7.13853 64.1378 7.35049 64.3288 7.70802C65.3218 7.6111 65.9166 7.56265 66.1134 7.56265V7.66272H66.0149L66.0642 7.90363L65.1026 8.19892L65.1474 8.29879C65.1474 8.45343 65.0043 8.55034 64.7179 8.58974V8.63978H64.8118V8.73985L64.7179 8.88522V8.98057C64.9744 9.80772 65.183 10.5425 65.3441 11.1849C65.3441 11.2365 65.3755 11.3015 65.438 11.3803V11.4303C65.438 11.4636 65.4217 11.4801 65.3887 11.4801L65.8228 12.7529C65.793 12.7529 65.778 12.7694 65.778 12.8027C65.9151 12.8027 66.0584 13.3072 66.2075 14.3162C66.1001 14.3162 66.021 14.3979 65.9704 14.5614H65.6795C65.6795 14.6615 65.5991 14.7115 65.438 14.7115C65.3247 14.5994 65.0355 14.4677 64.5704 14.3162C64.5704 14.2648 64.3302 14.1676 63.8501 14.0254C63.8501 13.989 63.7532 13.907 63.5593 13.78V13.6799L63.8949 13.7299H64.0425C64.1051 13.7299 64.1363 13.6982 64.1363 13.6344C64.1363 13.5314 63.8323 12.7314 63.2239 11.2349C63.2239 11.0348 63.0628 10.5289 62.7408 9.71691C62.1237 9.91389 61.4498 10.0608 60.719 10.1578C60.719 10.1243 60.7028 10.1077 60.67 10.1077C60.67 10.2046 60.5731 10.2697 60.3792 10.3031C59.8334 10.4304 59.5606 10.6106 59.5606 10.8439C59.3578 11.4985 59.1655 11.9543 58.9835 12.212V12.3619C59.0791 12.3619 59.1267 12.3938 59.1267 12.4574V12.5074L59.0327 12.4574H58.9344C58.839 12.7119 58.7913 12.8754 58.7913 12.9481L58.6929 12.8983C58.6929 12.9832 58.5959 13.0815 58.402 13.1935C58.402 13.2542 58.2262 13.5481 57.8743 14.0753L57.7758 14.1208H57.682L57.4897 13.9754H57.4404C57.3778 13.9845 57.3466 14.0177 57.3466 14.0753C57.3762 14.1357 57.3912 14.1842 57.3912 14.2206L57.2973 14.2707C57.2555 14.2374 57.175 14.2206 57.0558 14.2206C57.0558 14.3176 56.9916 14.366 56.8634 14.366L56.0897 13.83C55.8915 13.83 55.6985 13.5938 55.5104 13.1215C55.4946 13.335 55.4436 13.6591 55.3576 14.0937L55.2818 14.4767C55.2378 14.6996 55.1851 14.8046 55.1236 14.7922L55.0767 15.2831L55.0203 15.5684C54.8477 16.1018 54.6362 16.4249 54.3859 16.5373C54.3194 16.5899 54.2 16.6299 54.0296 16.6581L54.009 16.6654C53.8754 16.7771 53.9704 16.7467 53.8611 16.8577C53.8243 16.874 53.7395 16.8825 53.6093 16.8837V16.8848C53.5302 16.9203 53.4297 16.929 53.3078 16.9106C53.1618 17.085 53.0491 17.19 52.97 17.2252L52.4935 17.2199C52.0598 17.2715 51.5199 17.2812 50.8739 17.2489C50.377 17.004 49.7884 16.8222 49.1079 16.7026C48.7693 16.4402 48.4681 16.3084 48.2036 16.3075C48.14 16.1605 47.6873 15.8449 46.8457 15.3605C46.565 15.2014 46.3959 15.1344 46.3385 15.1602C46.1266 14.9339 45.9797 14.8389 45.8977 14.8756L45.8203 14.6967C46.6233 15.0164 47.0549 15.1628 47.1148 15.1358L47.095 15.0903L46.692 14.8929L46.6739 14.8513L46.7191 14.8312C46.7275 14.8507 46.9832 14.9522 47.4865 15.1362C47.9894 15.32 48.414 15.4124 48.7599 15.4133C49.0402 15.4669 49.2201 15.4758 49.2992 15.4403L49.3442 15.4202C49.3934 15.3984 49.4093 15.3564 49.3923 15.2946C48.2092 14.9924 47.5807 14.7554 47.5061 14.5836L47.4399 14.6677C47.35 14.7081 47.2598 14.6242 47.1697 14.4162L47.0838 14.4546L47.1216 14.5419L47.0764 14.5622C47.0237 14.4402 46.957 14.3275 46.8765 14.2245L46.9667 14.1843L46.9865 14.2298C48.5243 14.7869 49.5817 15.0808 50.1583 15.111C50.1583 15.111 51.7798 15.473 52.5327 15.0359C53.8898 14.248 53.5418 8.90663 53.5418 8.90663L53.6476 7.37978C53.6628 6.30442 53.5621 5.15263 53.3458 3.9248C53.2421 3.6502 52.8243 2.57091 52.8685 2.34811C52.9383 2.19564 53.0009 2.12473 53.0563 2.13615L53.1967 2.16472C53.2091 2.10247 53.2314 2.0745 53.2636 2.081ZM64.4323 9.9596C64.6262 10.7109 64.7708 11.0868 64.8662 11.0868V11.0367C64.8662 10.9973 64.8499 10.8352 64.817 10.5504L64.8662 10.3051C64.8335 10.3051 64.817 10.2884 64.817 10.2551L64.7232 10.3051H64.6247C64.6247 10.0746 64.5607 9.9596 64.4323 9.9596ZM61.4717 6.01984C61.3197 6.22273 61.1588 6.58165 60.9887 7.09697C60.917 7.54827 60.7888 7.98755 60.6041 8.41482H60.5548V8.61023C60.7189 8.61023 61.2497 8.48002 62.1471 8.2194V8.16957C62.1471 8.09964 61.922 7.39836 61.4717 6.06514V6.01984ZM60.0162 3.65598H59.8239V3.75605H59.9224C59.4393 4.79536 59.1977 5.51338 59.1977 5.91031C59.2663 5.89514 59.3303 5.81339 59.39 5.66486C59.3602 5.60734 59.3454 5.54214 59.3454 5.46945C59.4199 5.46945 59.5645 5.19209 59.7791 4.63777L59.7301 4.5377V4.48766C59.9059 4.28477 60.0013 4.0076 60.0162 3.65598Z" fill="#1D1D1F"/>
<path d="M39.4333 13.6401C38.8548 13.6069 38.5655 13.4766 38.5655 13.2495C38.4851 13.2495 38.4046 13.216 38.324 13.1494C38.324 13.1827 38.3077 13.1995 38.2749 13.1995C38.2749 13.1599 38.1466 13.0297 37.8903 12.8085C37.8903 12.669 37.7619 12.5222 37.5056 12.3676C37.2103 12.1919 36.8092 11.4906 36.3022 10.2634C36.197 10.1131 36.1343 10.0975 36.1146 10.2165C36.1444 10.4651 36.1593 10.7497 36.1593 11.071C36.1593 11.1195 36.1444 11.1437 36.1146 11.1437L36.1593 11.2438V11.5391C36.1593 11.6027 36.1279 11.7648 36.0653 12.0254L36.1593 11.9799C36.1921 12.3162 36.2084 12.5116 36.2084 12.5664H36.1593L36.2084 12.6617V13.007L36.2576 13.2525C36.1921 13.2525 36.1593 13.3009 36.1593 13.398C36.1593 13.4252 36.1756 13.5554 36.2084 13.7889L35.6807 13.9843C35.4868 13.9843 35.3901 13.8222 35.3901 13.4979H35.2916C35.2617 13.6252 35.2468 13.7388 35.2468 13.8389H35.1975C35.1975 13.6327 35.0366 13.5024 34.7146 13.4479C34.7146 13.2298 34.6341 12.9676 34.473 12.6617C34.4104 12.695 34.3627 12.7117 34.3299 12.7117V12.7616H34.4282V12.8116C34.4282 12.8419 34.4119 12.8571 34.379 12.8571L34.4282 12.957V13.0571C34.1688 12.8207 34.0391 12.38 34.0391 11.7345C34.1047 11.062 34.1376 10.5801 34.1376 10.2892C34.1376 9.94701 34.1047 9.64543 34.0391 9.38481C34.0391 9.35467 34.0554 9.22427 34.0884 8.99399C34.0884 8.95163 34.0719 8.78794 34.0391 8.50329L34.0884 8.25784C34.0554 8.20308 34.0391 8.12133 34.0391 8.01239H34.0884C34.0256 7.83964 33.9781 7.59577 33.9451 7.28078H33.9943C33.5977 5.22324 33.2444 4.19477 32.9344 4.19477L32.8359 3.85378V3.80375C32.8449 3.73736 32.8776 3.70407 32.9344 3.70407H32.979L33.0775 3.75391C33.0775 3.72062 33.0938 3.70407 33.1266 3.70407L33.0775 3.60853C33.0864 3.54175 33.1176 3.50846 33.1713 3.50846C33.234 3.54175 33.2832 3.5585 33.3189 3.5585C33.3189 3.51004 33.3666 3.46158 33.4622 3.41312C33.656 3.54924 33.7528 3.69639 33.7528 3.85378C33.8453 3.85378 33.9899 3.77203 34.1867 3.60853L34.322 3.60381C34.322 3.73402 34.4501 3.79922 34.7066 3.79922V3.89929H34.6083V3.9446C34.7813 3.9446 34.9094 3.99463 34.993 4.0947L34.9482 3.99463V3.9446H35.0422C35.0422 4.00212 35.1392 4.14907 35.3329 4.38565C35.9085 5.82465 37.568 8.2411 38.3732 11.2404C38.4418 11.2404 38.506 11.3874 38.5655 11.6815C38.8878 11.3269 39.1768 10.2332 39.4333 8.40007C39.4333 8.36973 39.417 8.35476 39.3843 8.35476C39.4409 7.56996 39.5213 7.17756 39.6256 7.17756C39.6256 7.214 39.6421 7.26246 39.6749 7.32313C39.6094 7.45334 39.5764 7.63359 39.5764 7.86387C39.5764 7.93656 39.5929 8.00176 39.6256 8.05928C39.5929 8.43809 39.5452 8.7318 39.4826 8.941C39.5153 9.16812 39.563 9.28179 39.6256 9.28179H39.6749C39.6749 9.15158 39.7063 9.08637 39.7687 9.08637V8.60001C39.8046 8.60001 39.8538 8.58346 39.9165 8.54998C39.8837 8.48044 39.8507 8.33349 39.818 8.10931C39.8806 8.07583 39.9283 8.05928 39.9612 8.05928L39.9165 7.81383C39.9463 7.81383 39.9612 7.79729 39.9612 7.7638H39.8672V7.66846C39.9954 7.66846 40.0595 7.2926 40.0595 6.54129C40.1043 6.32007 40.152 6.17332 40.2026 6.10043C40.1402 6.10043 40.1088 6.05197 40.1088 5.95486V5.41412H40.0595V5.36882C40.0595 5.33553 40.076 5.31878 40.1088 5.31878L40.0595 5.21871C40.1342 5.14602 40.1982 4.93407 40.2519 4.58264L40.2026 4.4871C40.2683 4.36595 40.3011 4.23555 40.3011 4.09628L40.2519 3.99621H40.3504V3.94617H40.2519V3.85083C40.4041 3.51753 40.6291 3.25533 40.9273 3.06445C41.2166 3.11922 41.3612 3.18422 41.3612 3.26006V3.35993C41.0033 3.50551 40.7141 3.78267 40.4934 4.19162L40.5427 4.29169L40.3949 5.36882H40.4934L40.3949 5.51419C40.3949 5.58688 40.4114 5.65209 40.4442 5.70961L40.3504 5.95486L40.3949 6.2003L40.3504 6.29584L40.3949 6.59132V6.7367C40.3325 7.05484 40.3011 7.23508 40.3011 7.27743C40.3011 7.35012 40.3176 7.41533 40.3504 7.47285C40.2848 7.63654 40.2356 7.71829 40.2026 7.71829L40.2519 7.81383C40.2519 7.97753 40.2206 8.05928 40.158 8.05928L40.2026 8.15935L40.1088 8.30473C40.1415 8.48339 40.158 8.6136 40.158 8.69535C40.1251 8.69535 40.1088 8.7121 40.1088 8.74539H40.2026C40.2026 8.41819 40.2833 8.10774 40.4442 7.81383L40.3949 7.52288V7.47285C40.5262 7.47285 40.5919 7.34264 40.5919 7.08202H40.6367L40.5919 6.98215C40.6664 6.87597 40.7141 6.72922 40.735 6.54129C40.7022 6.48692 40.6858 6.40497 40.6858 6.29584H40.735L40.6858 6.2003L40.7842 6.05059V6.00489C40.7842 5.92925 40.7678 5.86405 40.735 5.80968C40.7976 5.5792 40.8453 5.46416 40.8781 5.46416C40.8453 5.42161 40.8288 5.33986 40.8288 5.21871C40.8618 5.21871 40.8781 5.20374 40.8781 5.17341L40.8288 4.97327C40.8736 4.82493 40.9378 4.74456 41.0212 4.73235L40.9766 4.63248C41.0064 4.57476 41.0212 4.50975 41.0212 4.43707H41.1196C41.0869 4.87654 41.0704 5.20217 41.0704 5.41412V5.75964C40.975 5.75964 40.9273 5.79136 40.9273 5.85498C41.0227 5.85498 41.0704 6.01868 41.0704 6.34588H41.1196C41.2478 6.09432 41.312 5.94737 41.312 5.90502C41.2792 5.84139 41.2629 5.79293 41.2629 5.75964L41.312 5.26875C41.2792 5.20512 41.2629 5.15666 41.2629 5.12337C41.3612 5.12337 41.4105 5.05836 41.4105 4.92776H41.5043V4.97327C41.3761 5.64598 41.312 6.7564 41.312 8.30473H41.2629C41.2629 8.33802 41.2792 8.35476 41.312 8.35476L41.2629 8.60001V8.69535L41.4551 8.60001V8.64551C41.3924 9.30917 41.2478 10.3209 41.0212 11.6815C41.0212 12.0723 40.7811 12.6115 40.3011 13.2996C40.3011 13.4993 40.0118 13.613 39.4333 13.6401Z" fill="#1D1D1F"/>
<path d="M43.6822 12.4958H43.3959C43.3959 12.4321 43.2989 12.3669 43.1052 12.3003C42.6221 11.7791 42.3805 10.4248 42.3805 8.23727C42.3507 8.23727 42.3359 8.17227 42.3359 8.04186C42.3359 8.00857 42.3507 7.99183 42.3805 7.99183L42.3359 7.74658V7.30552C42.3359 7.27519 42.3507 7.26021 42.3805 7.26021C42.3507 7.19659 42.3359 7.14655 42.3359 7.11011L42.3805 5.93764H42.4298C42.4298 5.90435 42.4135 5.8876 42.3805 5.8876C42.4222 5.44536 42.4552 5.18475 42.479 5.10576C42.479 5.07247 42.4625 5.05592 42.4298 5.05592C42.4298 5.02243 42.4463 4.97397 42.479 4.91054C42.5118 4.08654 42.5281 3.43353 42.5281 2.95169C42.5281 2.41845 42.4641 1.73214 42.3359 0.892974C42.4759 0.632359 42.6205 0.501953 42.7696 0.501953C42.9546 0.501953 43.0665 0.5839 43.1052 0.7474C43.3408 0.802163 43.5494 0.965663 43.7315 1.23849C43.7315 1.32615 43.7642 1.42307 43.8297 1.52925L43.9238 1.48374H43.973C44.0356 1.92913 44.0669 2.173 44.0669 2.21535H44.1653V2.12001C44.3024 2.12001 44.3829 2.34714 44.4067 2.80179C44.4515 2.80179 44.5157 3.03049 44.599 3.4879C44.632 3.4879 44.6483 3.50464 44.6483 3.53793C44.6483 3.57122 44.632 3.58797 44.599 3.58797L44.7423 4.61506C44.7096 4.79097 44.6931 4.93773 44.6931 5.05592V5.59212C44.6931 5.66796 44.6781 5.73474 44.6483 5.79226C44.6781 5.85274 44.6931 5.90119 44.6931 5.93764C44.5767 7.1434 44.4814 7.74658 44.4067 7.74658L44.456 8.0919V8.97342C44.456 9.04611 44.4397 9.11131 44.4067 9.16883C44.4397 9.22655 44.456 9.29155 44.456 9.36444V9.41428C44.456 9.4781 44.4232 9.50982 44.3577 9.50982C44.3577 9.47653 44.3412 9.45978 44.3084 9.45978V9.50982L44.4067 9.65519V9.75526L44.2146 11.3231L43.973 11.7139C43.8656 11.7139 43.7687 11.7624 43.6822 11.8595C43.6822 11.8926 43.6985 11.9093 43.7315 11.9093L43.6822 12.4004V12.4958Z" fill="#1D1D1F"/>
<path fill-rule="evenodd" clip-rule="evenodd" d="M35.8141 26.3074L34.8884 26.2131L34.7985 26.2602C34.4212 26.1661 34.1441 26.0276 33.967 25.8449C33.5669 25.5163 33.367 25.2709 33.367 25.1081C33.367 25.0797 33.3356 24.9555 33.2727 24.7355V24.6928L33.3198 24.5985C33.2799 24.5985 33.1885 24.4758 33.0456 24.2302V24.093C33.0456 24.0616 33.1526 23.9688 33.367 23.8145L33.3198 23.5834C33.8599 23.1837 34.2299 22.9837 34.4298 22.9837V23.0309C34.4298 23.1536 34.3213 23.3992 34.1041 23.7675V23.8145C34.1699 23.8145 34.3399 23.8604 34.6141 23.9517L35.3986 23.8617V23.9088C35.6042 23.8774 35.8043 23.8303 35.9986 23.7675L36.32 23.8145C36.7656 23.7434 37.3199 23.4662 37.9829 22.9837C38.1715 22.8267 38.3558 22.5811 38.5358 22.2471C38.69 22.0843 38.767 21.93 38.767 21.7844C37.0556 21.4161 36.1327 21.1848 35.9986 21.0907C35.9986 21.1532 35.967 21.1848 35.9042 21.1848C34.8214 20.9249 34.1913 20.6795 34.014 20.4482C33.8827 20.4482 33.6512 20.2941 33.3198 19.9855C33.2398 19.977 33.0713 19.777 32.814 19.3859C32.7399 19.3859 32.6628 19.279 32.5827 19.0645C32.4597 19.0645 32.3984 18.9104 32.3984 18.6021C32.3984 18.0882 32.5511 17.6412 32.8569 17.2615C33.0427 16.9474 33.2583 16.6862 33.5041 16.4777C33.6498 16.3322 33.7426 16.1792 33.7828 16.0194C34.2541 15.6796 34.5314 15.5098 34.6141 15.5098C35.3085 15.5811 35.8156 15.7038 36.1357 15.8779C36.8442 16.255 37.1986 16.609 37.1986 16.9402V17.3087H37.1043V17.3557L37.1514 17.45L36.92 17.4928C36.8199 17.4928 36.5899 17.3701 36.2299 17.1243C35.6984 17.3414 35.3757 17.4956 35.2613 17.5872C35.2356 17.7327 35.0356 17.9169 34.6613 18.1395C34.6613 18.1909 34.5071 18.3452 34.1985 18.6021C34.0127 18.8819 33.9199 19.0504 33.9199 19.1076C34.537 19.3844 35.5527 19.6614 36.967 19.9386C38.2473 20.2469 39.0314 20.5553 39.3201 20.8636C40.2457 21.3233 40.7087 21.676 40.7087 21.9215H40.6143C40.6143 21.8414 40.4458 21.6888 40.1086 21.4631H40.0143V21.506C40.1543 21.883 40.37 22.1299 40.6615 22.2471C40.6615 22.287 40.7386 22.4255 40.893 22.6624C40.83 22.6711 40.7986 22.701 40.7986 22.7524L40.8458 23.1679C40.8458 23.4022 40.6615 23.5862 40.2929 23.7206C40.2929 23.8204 40.1543 23.9745 39.8772 24.183C39.8772 24.3373 39.6299 24.5528 39.1358 24.8298C39.1358 24.8896 38.9357 25.0739 38.5358 25.3823C38.4444 25.4194 38.3985 25.4666 38.3985 25.5236H38.3515L38.2614 25.4766C38.2614 25.6992 37.9686 25.9149 37.3829 26.1232C37.3829 26.0291 37.3513 25.9819 37.2885 25.9819C37.1886 26.1217 37.0199 26.2145 36.7829 26.2602L36.5042 26.2131H36.4141C36.3456 26.2131 36.2843 26.2288 36.2299 26.2602L36.1357 26.2131C36.0812 26.2446 36.0199 26.2602 35.9514 26.2602L35.8613 26.2131L35.8141 26.3074ZM44.7279 25.7963H44.6335C44.3164 25.7963 44.1007 25.7506 43.9863 25.6592L43.802 25.7064C43.7535 25.7064 43.662 25.645 43.5278 25.5221L43.4335 25.5649C43.2193 25.5163 43.0192 25.3321 42.8334 25.0123L42.7393 25.0594H42.6492C42.0034 24.5285 41.6806 24.1744 41.6806 23.9973C41.1576 22.918 40.8963 21.6873 40.8963 20.3054C40.8734 20.3054 40.8262 19.8598 40.7547 18.9691H40.8019C40.7391 18.8118 40.7077 18.7049 40.7077 18.6477C40.7306 18.4621 40.762 18.3693 40.8019 18.3693L40.5234 17.033C40.5805 17.033 40.6277 16.8945 40.6648 16.6175C40.7876 16.6175 40.8491 16.5861 40.8491 16.5234V16.4762H40.8963L41.0334 16.5705C41.0991 16.5705 41.1905 16.4777 41.3077 16.2921C41.3419 16.2921 41.3891 16.2763 41.4491 16.2449V16.3392L41.6806 16.2921C41.6806 16.3864 41.6949 16.4333 41.7235 16.4333C41.7662 16.402 41.8435 16.3864 41.9548 16.3864C41.9548 16.4575 42.0476 16.5031 42.2334 16.5234V16.5705L42.1864 16.6604C42.2492 16.6604 42.2806 16.6918 42.2806 16.7545H42.3235C42.3549 16.7545 42.4792 16.7231 42.6963 16.6604H42.8334V16.9858L42.7393 17.1228L42.8806 17.2171L42.7393 17.9068C42.7506 17.9696 42.782 18.0009 42.8334 18.0009C42.802 18.3607 42.7864 18.6221 42.7864 18.7847V18.8319L42.8334 19.2901H42.7864L42.8334 19.3844V19.4315C42.8334 19.9255 42.8791 20.8165 42.9705 22.1041H42.9235C42.9549 22.1756 43.0177 22.4225 43.1121 22.8452L43.0649 23.0765C43.1249 23.1764 43.1548 23.2677 43.1548 23.3505L43.1121 23.4448C43.2635 23.4448 43.3393 23.5989 43.3393 23.9073C43.3905 23.9073 43.4535 23.9986 43.5278 24.1815C43.6792 24.1815 44.0478 23.813 44.6335 23.0765C44.9735 22.5025 45.3121 21.5173 45.6493 20.1212V19.4742L45.6021 19.1531H45.6493L45.6021 19.063C45.6021 18.9919 45.6179 18.929 45.6493 18.8748C45.5579 17.6697 45.5122 16.9474 45.5122 16.7075C45.6235 16.559 45.7622 16.4361 45.9279 16.3392V16.202H46.0178V16.2921H46.1549C46.3123 16.0778 46.4507 15.9707 46.5707 15.9707L46.6179 16.0607L46.7122 16.0179H46.8021V16.1549H46.8493L47.0808 16.1079L47.3593 16.2921V16.4333H47.5435V16.3392C47.6037 16.3706 47.6494 16.3864 47.6808 16.3864C47.7408 16.3548 47.7865 16.3392 47.8179 16.3392C48.0351 16.539 48.1436 16.7846 48.1436 17.0757C48.1122 17.0757 48.0964 17.0915 48.0964 17.1228C48.1566 17.1343 48.1865 17.1657 48.1865 17.2171C48.0951 17.2886 48.0494 17.3955 48.0494 17.5385H48.0022L47.9123 17.26C47.8493 17.2713 47.8179 17.3027 47.8179 17.3541V18.0009C47.8179 18.2922 47.8021 18.6462 47.7707 19.063L47.8179 19.2901C47.6266 20.535 47.4423 21.3662 47.2651 21.7829C47.2335 21.7829 47.2179 21.7987 47.2179 21.8301V22.2456L47.2651 22.7039C47.1421 22.7039 47.0808 22.8281 47.0808 23.0765H47.0336C47.0336 23.1764 47.0951 23.5147 47.2179 24.0915H47.1707L47.2179 24.1815V24.4128C47.2179 24.4813 47.2023 24.5428 47.1707 24.597C47.2023 24.6569 47.2179 24.7026 47.2179 24.734C47.1493 24.734 47.0722 24.5812 46.9864 24.2758H46.9435C46.9435 24.3042 46.9279 24.3185 46.8965 24.3185C46.9565 24.6441 47.0336 24.9681 47.128 25.2907C47.0964 25.3509 47.0808 25.3966 47.0808 25.4279C47.0321 25.4279 46.9249 25.1051 46.7592 24.46H46.7122L46.665 24.5498V24.597H46.7592V24.8753H46.8493C46.8493 24.9068 46.8335 24.9224 46.8021 24.9224L46.8493 25.0123V25.1495L46.7592 25.1066C46.7592 25.1352 46.7436 25.1495 46.7122 25.1495C46.6179 24.9666 46.5094 24.6283 46.3864 24.1343H46.2965C46.2536 24.1343 46.1923 24.2728 46.1122 24.5498C46.0522 24.5498 45.8978 24.7197 45.6493 25.0594L45.6965 25.1495C45.6136 25.2521 45.3979 25.3449 45.0493 25.4279C44.8349 25.605 44.7279 25.7278 44.7279 25.7963ZM47.4424 26.5392H47.3053C47.2737 26.3136 47.2423 26.1751 47.2109 26.1237C47.2423 26.0725 47.2581 25.9954 47.2581 25.8926H47.3523V26.0766L47.3053 26.1666C47.3653 26.198 47.411 26.2136 47.4424 26.2136V26.2607L47.3523 26.3979C47.4123 26.4092 47.4424 26.4408 47.4424 26.492V26.5392ZM58.259 27.4985L58.0747 27.4086C58.0147 27.4372 57.9675 27.4515 57.9333 27.4515L57.7489 27.4086C57.6891 27.4372 57.6434 27.4515 57.6118 27.4515C57.6118 27.3717 57.5033 27.3103 57.2861 27.2674C57.2176 27.0873 57.0946 26.9347 56.9174 26.809C56.7346 26.4778 56.596 26.0167 56.5018 25.4256L56.5488 25.3313C56.5174 25.2713 56.5018 25.2256 56.5018 25.1943H56.5488C56.4946 25.0944 56.4331 24.6633 56.3645 23.9007H56.4117C56.3547 23.7152 56.2003 22.2703 55.9488 19.5664C55.9174 19.5664 55.8717 19.3195 55.8117 18.8254C55.8117 18.7941 55.8275 18.7482 55.8589 18.6883C55.8589 18.3686 55.6731 18.0144 55.3018 17.6262C55.3018 17.6059 55.2247 17.3904 55.0703 16.9792C55.1047 16.8422 55.2132 16.7352 55.396 16.6582H55.4431V16.7481C55.6603 16.6881 55.7831 16.6582 55.8117 16.6582H55.8589V16.9365H55.9488L55.9018 17.0263V17.0735C55.9646 17.0735 55.996 17.0893 55.996 17.1206L56.3645 16.8893H56.4117V16.9365C56.3803 16.9935 56.3645 17.0392 56.3645 17.0735C56.3961 17.0735 56.4117 17.0893 56.4117 17.1206C56.4717 17.0893 56.5174 17.0735 56.5488 17.0735C56.8174 17.0908 57.0946 17.3362 57.3803 17.8103C57.3803 18.0131 57.4875 18.3214 57.7019 18.7354C57.9188 20.7085 58.0275 21.785 58.0275 21.9649H58.0747C58.7747 21.8706 59.2976 21.8235 59.6433 21.8235H59.8276C60.1048 21.8235 60.2433 21.6551 60.2433 21.3181H60.2905L60.2433 21.2238V21.1811C60.3975 21.1811 60.5519 20.2572 60.7063 18.4098C60.6433 18.4098 60.6119 18.3799 60.6119 18.3199V18.0415C60.7776 18.0415 60.9006 17.9958 60.9805 17.9045H61.0748L61.1177 18.1358C61.0889 18.1358 61.0748 18.1501 61.0748 18.1785L61.1647 18.2256C61.1647 18.1942 61.1805 18.1785 61.2119 18.1785L61.1647 18.0886V18.0415C61.3676 18.0415 61.4906 17.9488 61.5333 17.7632H61.6277C61.6277 17.7973 61.6435 17.8445 61.6748 17.9045L61.7648 17.8575H61.8119C61.8119 17.9601 61.8275 18.0372 61.8591 18.0886L61.949 18.0415C62.012 18.0502 62.0434 18.0816 62.0434 18.1358V18.1785H61.949V18.2256H62.0906L62.1333 18.1358C62.1049 18.0756 62.0906 18.0288 62.0906 17.9945H62.1805C62.3663 18.1571 62.4591 18.2956 62.4591 18.4098H62.5962L62.6904 18.3626L62.6434 18.2728C62.652 18.21 62.6821 18.1785 62.7333 18.1785C62.962 18.1785 63.0863 18.2256 63.1064 18.3199V18.4098C63.1064 18.4727 63.0592 18.5041 62.9648 18.5041C63.0878 18.824 63.1491 19.0237 63.1491 19.1037C62.9977 19.7149 62.9221 20.4829 62.9221 21.4082L63.012 21.4553C63.012 21.4238 63.0276 21.4082 63.0592 21.4082C63.0592 21.4709 63.0748 21.5021 63.1064 21.5021L63.2905 21.4082V21.4553C63.2905 21.5467 63.1677 21.6079 62.9221 21.6393V21.9178H63.2435L63.8435 21.7806C63.8435 21.8093 63.8593 21.8235 63.8905 21.8235C63.8905 21.7637 64.0135 21.718 64.2592 21.6865V21.7336C64.2592 21.7735 64.0592 21.8806 63.6592 22.0548C63.6592 22.1775 63.382 22.316 62.8277 22.4703V22.5644L63.0592 22.5174C63.0906 22.5174 63.1064 22.533 63.1064 22.5644C63.1664 22.533 63.2121 22.5174 63.2435 22.5174H63.3376V22.5644C62.9663 22.61 62.7805 22.6715 62.7805 22.7485C62.7805 22.8401 62.7647 22.8857 62.7333 22.8857L62.7805 22.9799C62.7205 23.2398 62.6904 23.3925 62.6904 23.4382L62.7333 23.7167C62.7333 23.9994 62.6419 24.706 62.4591 25.8368H62.3648V25.7469H62.3221V26.3464H62.1805L61.9962 26.2094C61.9962 26.2608 61.9191 26.3993 61.7648 26.6248C61.7648 26.9533 61.6734 27.1374 61.4906 27.1775C61.4906 27.2689 61.3362 27.3145 61.0276 27.3145H60.9805C60.9805 27.2232 60.9348 27.1775 60.8434 27.1775H60.7962V26.809C60.7962 26.7377 60.7806 26.6763 60.749 26.6248C60.749 26.5935 60.7648 26.5777 60.7962 26.5777C60.7962 26.5149 60.7806 26.4834 60.749 26.4834C60.8205 25.3155 60.882 24.7318 60.9335 24.7318L60.8905 24.6375C60.9505 24.426 60.9805 24.2421 60.9805 24.085V23.7167L61.0276 23.4854C60.9533 23.4254 60.8918 23.3955 60.8434 23.3955C60.389 23.4869 60.0804 23.5624 59.9175 23.6224V23.9007C59.8376 23.9007 59.7304 24.0705 59.5961 24.4104L59.1804 25.3313C59.1204 25.3626 59.0747 25.3784 59.0433 25.3784V25.7469C59.0433 25.821 58.9662 25.9595 58.8118 26.1622C58.8118 26.3449 58.7804 26.4364 58.7176 26.4364L58.7646 26.5305C58.5189 26.7932 58.3961 26.9475 58.3961 26.9934V27.2245L58.4433 27.3145C58.3403 27.3145 58.2789 27.3758 58.259 27.4985ZM60.485 21.4042C60.6306 20.9389 60.7378 20.6918 60.8064 20.6633C60.775 20.5405 60.7293 20.4334 60.6693 20.3421L60.7592 20.2051H60.7165C60.665 20.2051 60.602 20.3122 60.5277 20.5262L60.5749 20.7576C60.5606 20.8803 60.5149 20.9417 60.4378 20.9417V20.9887L60.485 21.0789H60.3906V21.31C60.4021 21.373 60.4335 21.4042 60.485 21.4042ZM61.6331 25.1935C61.7074 25.1935 61.7531 25.039 61.7702 24.7307C61.7416 24.6709 61.7275 24.6252 61.7275 24.5936H61.8174V24.4097C61.8174 24.3467 61.7873 24.3154 61.7275 24.3154L61.7702 24.084V23.6257C61.7702 23.5943 61.786 23.5785 61.8174 23.5785L61.7702 23.4844C61.7702 23.453 61.786 23.4072 61.8174 23.3474L61.7275 22.9319C61.7559 22.9319 61.7702 22.9161 61.7702 22.8848H61.6803V23.2104C61.6803 23.2789 61.6645 23.3402 61.6331 23.3944C61.6331 23.4259 61.6489 23.4415 61.6803 23.4415L61.6331 23.6686V23.7627L61.6803 24.084H61.6331L61.6803 24.1784V24.2682C61.6803 24.331 61.6489 24.3625 61.5859 24.3625C61.6489 24.4624 61.6803 24.5552 61.6803 24.6408V24.8678L61.6331 25.1935ZM61.3051 25.6045C61.3653 25.3732 61.3952 25.2347 61.3952 25.189C61.3952 25.1576 61.3794 25.1418 61.348 25.1418L61.3952 24.9105V24.4052L61.348 23.8483H61.3952L61.348 23.7582V23.437C61.348 23.4057 61.3638 23.3899 61.3952 23.3899C61.3638 23.35 61.348 23.2414 61.348 23.0645C61.288 23.076 61.2581 23.1073 61.2581 23.1588V23.4799C61.2581 23.657 61.2423 23.7656 61.2109 23.8054C61.2423 23.9712 61.2581 24.1095 61.2581 24.221V25.6045H61.3051ZM59.2348 24.4512C59.2348 24.3514 59.342 24.1371 59.5562 23.8087L59.7876 23.3463V23.252H59.7406C59.5634 23.4491 59.4248 23.696 59.3249 23.9931C59.3048 23.9931 59.2434 24.0701 59.1406 24.2244V24.4512H59.2348ZM58.168 25.1921C58.351 24.9919 58.6895 24.4838 59.1838 23.6672C59.1838 23.6386 59.1996 23.6243 59.231 23.6243V23.7613H59.3211C59.3211 23.6328 59.3525 23.4787 59.4153 23.2988H59.3681V23.346C59.3367 23.346 59.3211 23.3302 59.3211 23.2988C58.8152 23.4843 58.5238 23.5771 58.4467 23.5771C58.2381 23.4858 58.1153 23.4401 58.0781 23.4401V23.5771C58.0781 23.6456 58.0924 23.7071 58.1209 23.7613C58.1209 23.7926 58.1067 23.8084 58.0781 23.8084C58.1067 23.9484 58.1366 24.4096 58.168 25.1921ZM65.454 27.1803H65.1798C65.1798 27.1203 65.0869 27.0588 64.9012 26.9961C64.4383 26.5049 64.207 25.2285 64.207 23.1669C64.1784 23.1669 64.1641 23.1057 64.1641 22.9828C64.1641 22.9514 64.1784 22.9356 64.207 22.9356L64.1641 22.7045V22.2888C64.1641 22.2604 64.1784 22.2461 64.207 22.2461C64.1784 22.1862 64.1641 22.139 64.1641 22.1047L64.207 20.9997H64.254C64.254 20.9683 64.2384 20.9525 64.207 20.9525C64.2469 20.5358 64.2783 20.2902 64.3012 20.2159C64.3012 20.1843 64.2856 20.1687 64.254 20.1687C64.254 20.1374 64.2698 20.0915 64.3012 20.0317C64.3327 19.2552 64.3483 18.6398 64.3483 18.1857C64.3483 17.6831 64.2869 17.0363 64.1641 16.2455C64.2984 15.9999 64.437 15.877 64.5798 15.877C64.757 15.877 64.864 15.9542 64.9012 16.1083C65.1269 16.1599 65.327 16.314 65.5012 16.5711C65.5012 16.6537 65.5328 16.745 65.5956 16.8451L65.6855 16.8022H65.7327C65.7927 17.222 65.8228 17.452 65.8228 17.4919H65.917V17.4019C66.0483 17.4019 66.1256 17.6159 66.1484 18.0444C66.1913 18.0444 66.2528 18.2599 66.3327 18.691C66.3641 18.691 66.3799 18.7068 66.3799 18.7381C66.3799 18.7695 66.3641 18.7853 66.3327 18.7853L66.4698 19.7533C66.4384 19.919 66.4228 20.0574 66.4228 20.1687V20.6741C66.4228 20.7455 66.4083 20.8085 66.3799 20.8627C66.4083 20.9197 66.4228 20.9654 66.4228 20.9997C66.3113 22.136 66.2199 22.7045 66.1484 22.7045L66.1956 23.0299V23.8607C66.1956 23.9292 66.1798 23.9907 66.1484 24.0449C66.1798 24.0993 66.1956 24.1605 66.1956 24.2292V24.2762C66.1956 24.3363 66.164 24.3662 66.1012 24.3662C66.1012 24.3348 66.0856 24.3191 66.054 24.3191V24.3662L66.1484 24.5032V24.5975L65.9641 26.0753L65.7327 26.4434C65.6299 26.4434 65.5371 26.4891 65.454 26.5806C65.454 26.612 65.4698 26.6276 65.5012 26.6276L65.454 27.0904V27.1803ZM50.5625 17.713C50.9901 17.5541 51.3916 17.4212 51.767 17.3145H51.8081V17.3924C51.6738 17.4 51.6067 17.4273 51.6067 17.4747C51.3656 17.4895 51.2448 17.543 51.2448 17.6349H51.1256C51.036 17.6349 50.9429 17.6746 50.846 17.7541H50.5625V17.713ZM55.1482 23.8075H55.1891C55.1891 23.7504 55.1493 23.6696 55.0698 23.5653V23.4461L55.1072 23.364L54.8685 22.9617C54.426 22.5143 53.9164 22.1131 53.3396 21.758C52.7805 21.4276 52.4994 21.2399 52.497 21.1953C52.2757 21.1008 51.6865 20.7407 50.7294 20.1147C50.205 19.8189 49.8444 19.5109 49.6481 19.1903C49.6605 19.0836 49.7003 19.0301 49.7673 19.0301C49.7673 18.8513 50.5866 18.5617 51.2828 18.276C51.6854 18.1667 51.8867 18.0735 51.8867 17.9964C52.5804 17.7655 52.9681 17.6177 53.0502 17.5531C53.4529 17.4636 53.6543 17.3966 53.6543 17.3519C53.7139 17.3519 53.7674 17.4464 53.8146 17.6352L53.7736 17.7133C53.7736 17.7681 53.8133 17.7952 53.8928 17.7952V17.8362C53.8133 17.8362 53.7736 17.8761 53.7736 17.9556C53.8009 18.0896 53.8817 18.2636 54.016 18.4773H54.1352L54.0942 18.3954H54.2136C54.3305 18.0475 54.4249 17.8735 54.4969 17.8735V17.7952C54.4969 17.6636 54.5367 17.5295 54.6162 17.3927C54.5889 17.3457 54.5753 17.2921 54.5753 17.2327C54.5629 17.1408 54.3491 16.9668 53.9339 16.711L53.2516 16.5098H53.2105C53.0266 16.5098 52.8265 16.5506 52.6103 16.6327C51.8568 16.7916 51.3748 16.9518 51.1634 17.1135L51.0814 17.0725H51.003C50.8663 17.1792 50.6923 17.2462 50.481 17.2737L49.0752 17.9146C48.496 18.2127 48.174 18.5209 48.1094 18.8387C48.1094 18.8784 48.1764 19.0524 48.3107 19.3604L48.2697 19.4424C48.2697 19.4649 48.3232 19.5841 48.4302 19.8002C48.4302 19.8722 48.4973 19.953 48.6316 20.0424C48.6316 20.1195 48.7519 20.2797 48.9931 20.5231C49.294 20.7045 49.5214 20.8784 49.6756 21.0447C49.944 21.0919 50.0783 21.1591 50.0783 21.246C50.6053 21.5343 50.8998 21.7218 50.962 21.8089C51.6406 22.1839 52.3367 22.6248 53.0502 23.1318C53.5051 23.3651 53.7327 23.5267 53.7327 23.6161C53.4566 23.8371 52.64 24.0112 51.2828 24.1378C51.2828 24.1105 51.2691 24.0968 51.2416 24.0968C51.1944 24.1241 51.1409 24.1378 51.0814 24.1378H49.5153C49.0876 24.1378 48.8738 24.298 48.8738 24.6185V24.7378C48.9758 24.7378 49.0428 24.8323 49.0752 25.0209L49.3139 25.1813C49.4283 25.2606 49.5089 25.3005 49.5563 25.3005C49.7079 25.4073 49.8147 25.4605 49.8769 25.4605C49.8769 25.5974 50.1318 25.6919 50.6414 25.744V25.7812L50.6003 25.863C50.819 25.863 50.9533 25.8892 51.003 25.9414H51.1223L51.3647 25.9041L51.4429 25.9414C51.8284 25.9091 52.1626 25.8695 52.4461 25.8222C52.4461 25.8495 52.4598 25.863 52.4871 25.863C53.0168 25.7986 53.5523 25.6644 54.0942 25.4605C54.2658 25.421 54.4137 25.2471 54.538 24.9391H54.8176L54.8997 24.6595V24.5366C54.8997 24.4744 55.2303 23.9839 55.1482 23.8075Z" fill="#1D1D1F"/>
</svg>
