<svg width="45" height="44" viewBox="0 0 45 44" fill="none" xmlns="http://www.w3.org/2000/svg">
<path d="M19.3997 7.95703V9.69143C19.3997 10.2251 17.9543 11.2035 15.5529 11.2035C13.1514 11.2035 11.7061 10.2251 11.7061 9.69143V7.95703C12.7289 8.46846 14.0408 8.77976 15.5529 8.77976C17.0649 8.802 18.3991 8.49069 19.3997 7.95703Z" fill="#9E9E9E"/>
<path d="M24.1321 12.1807H22.1309V19.5852H24.1321V12.1807Z" fill="#86868B"/>
<path d="M15.5723 37.0385C10.7694 37.0385 6.98926 34.8593 6.98926 32.1021V12.1787H8.99049V32.1021C8.99049 33.4807 11.7922 35.0372 15.5723 35.0372V37.0385Z" fill="#86868B"/>
<path d="M15.5723 17.1172C10.7471 17.1172 6.98926 14.9604 6.98926 12.1809C6.98926 10.6021 8.21223 9.15679 10.3246 8.24512L11.1251 10.0907C9.79098 10.6688 8.99049 11.4471 8.99049 12.2031C8.99049 13.5817 11.7922 15.1382 15.5723 15.1382C19.3524 15.1382 22.1541 13.5817 22.1541 12.2031C22.1541 11.4693 21.3537 10.6688 20.0195 10.0907L20.82 8.24512C22.9324 9.15679 24.1554 10.6021 24.1554 12.1809C24.1331 14.9604 20.3753 17.1172 15.5723 17.1172Z" fill="#86868B"/>
<path d="M21.4004 5.28613V9.71108C21.4004 9.88897 21.3782 10.0669 21.3337 10.2447C20.9335 11.9791 18.5765 13.2021 15.5746 13.2021C12.7951 13.2021 10.5938 12.157 9.92669 10.645C9.79327 10.3337 9.72656 10.0224 9.72656 9.68884V5.28613H11.7278V9.71108C11.7278 10.2447 13.1954 11.2231 15.5746 11.2231C17.9538 11.2231 19.4214 10.2447 19.4214 9.71108V5.28613H21.4004Z" fill="#86868B"/>
<path d="M20.8858 3.79788C19.9964 2.57491 17.9952 1.77441 15.5492 1.77441C13.4368 1.77441 11.6579 2.37478 10.6351 3.33093C10.0347 3.88683 9.70117 4.5539 9.70117 5.28769C9.70117 6.39948 10.4572 7.33339 11.7024 7.97823C12.7253 8.48966 14.0372 8.80096 15.5492 8.80096C17.039 8.80096 18.3732 8.48966 19.396 7.97823C20.6412 7.35563 21.3973 6.39948 21.3973 5.28769C21.3973 4.73179 21.2194 4.2426 20.8858 3.79788ZM15.5715 6.79973C13.1922 6.79973 11.7246 5.82135 11.7246 5.28769C11.7246 4.75403 13.1922 3.77565 15.5715 3.77565C17.9507 3.77565 19.4183 4.75403 19.4183 5.28769C19.396 5.82135 17.9507 6.79973 15.5715 6.79973Z" fill="#86868B"/>
<path d="M19.3997 5.28841C19.3997 5.82207 17.9543 6.80045 15.5529 6.80045C13.1514 6.80045 11.7061 5.82207 11.7061 5.28841C11.7061 4.75475 13.1736 3.77637 15.5529 3.77637C17.9321 3.77637 19.3997 4.75475 19.3997 5.28841Z" fill="#9E9E9E"/>
<path d="M25.203 18.5859C17.4649 18.5859 11.3945 21.9436 11.3945 26.2351C11.3945 30.5266 17.4649 33.8842 25.203 33.8842C32.9411 33.8842 39.0115 30.5266 39.0115 26.2351C39.0115 21.9436 32.9634 18.5859 25.203 18.5859ZM35.7873 28.7033C33.8306 30.5711 29.7836 31.883 25.203 31.883C20.6224 31.883 16.5755 30.5711 14.6187 28.681C13.8405 27.9473 13.3958 27.1023 13.3958 26.2351C13.3958 23.1888 18.7991 20.5872 25.203 20.5872C31.5847 20.5872 37.0103 23.1665 37.0103 26.2351C37.0103 27.1023 36.5656 27.9473 35.7873 28.7033Z" fill="#86868B"/>
<path d="M25.1974 42.0002C19.6162 42.0002 15.8138 39.9323 14.7243 36.3523L12.5674 29.2813L14.4797 28.7031L16.6366 35.7741C17.437 38.4647 20.5501 39.999 25.1751 39.999V42.0002H25.1974Z" fill="#86868B"/>
<path d="M25.2041 42V39.9987C29.8292 39.9987 32.9422 38.4645 33.7427 35.7739L35.8996 28.6807L37.8119 29.2588L35.655 36.3298C34.5877 39.932 30.7853 42 25.2041 42Z" fill="#86868B"/>
<path d="M35.7867 28.7028C33.83 30.5706 29.7831 31.8825 25.2025 31.8825C20.6219 31.8825 16.5749 30.5706 14.6182 28.6806C16.0413 26.7905 19.9993 25.1006 25.2025 25.1006C30.4279 25.1228 34.3859 26.7905 35.7867 28.7028Z" fill="#9E9E9E"/>
</svg>
