<svg width="45" height="44" viewBox="0 0 45 44" fill="none" xmlns="http://www.w3.org/2000/svg">
<path fill-rule="evenodd" clip-rule="evenodd" d="M23.6802 5.62558C21.7209 6.77811 20.75 8.22565 20.75 9.625C20.75 11.0244 21.7209 12.4719 23.6802 13.6244C25.6164 14.7634 28.3567 15.5 31.4375 15.5C34.5183 15.5 37.2586 14.7634 39.1948 13.6244C41.1541 12.4719 42.125 11.0244 42.125 9.625C42.125 8.22565 41.1541 6.77811 39.1948 5.62558C37.2586 4.48664 34.5183 3.75 31.4375 3.75C28.3567 3.75 25.6164 4.48664 23.6802 5.62558ZM22.6662 3.90171C24.96 2.55238 28.0634 1.75 31.4375 1.75C34.8116 1.75 37.915 2.55238 40.2088 3.90171C42.4796 5.23744 44.125 7.22739 44.125 9.625C44.125 12.0226 42.4796 14.0126 40.2088 15.3483C37.915 16.6976 34.8116 17.5 31.4375 17.5C28.0634 17.5 24.96 16.6976 22.6662 15.3483C20.3954 14.0126 18.75 12.0226 18.75 9.625C18.75 7.22739 20.3954 5.23744 22.6662 3.90171Z" fill="#86868B"/>
<path d="M37.625 9.625C37.625 11.1438 34.8548 12.375 31.4375 12.375C28.0202 12.375 25.25 11.1438 25.25 9.625C25.25 8.10622 28.0202 6.875 31.4375 6.875C34.8548 6.875 37.625 8.10622 37.625 9.625Z" fill="#9E9E9E"/>
<path fill-rule="evenodd" clip-rule="evenodd" d="M18.75 9.62511C18.75 9.62504 18.75 9.625 19.75 9.625C20.75 9.625 20.75 9.62504 20.75 9.62511V23.375C20.75 24.7744 21.7209 26.2219 23.6802 27.3744C25.6164 28.5134 28.3567 29.25 31.4375 29.25C34.5183 29.25 37.2586 28.5134 39.1948 27.3744C41.1541 26.2219 42.125 24.7744 42.125 23.375V9.625H44.125V23.375C44.125 25.7726 42.4796 27.7626 40.2088 29.0983C37.915 30.4476 34.8116 31.25 31.4375 31.25C28.0634 31.25 24.96 30.4476 22.6662 29.0983C20.3954 27.7626 18.75 25.7726 18.75 23.375V9.62511Z" fill="#86868B"/>
<path fill-rule="evenodd" clip-rule="evenodd" d="M4.33118 26.5445C4.85904 26.3821 5.41863 26.6783 5.58104 27.2062L7.55258 33.6137C7.94215 34.8798 8.93326 35.8709 10.1994 36.2604L23.4931 40.3508C24.5409 40.6732 25.6751 40.5515 26.6305 40.014L35.76 34.8787C36.2414 34.6079 36.8511 34.7786 37.1218 35.26C37.3926 35.7414 37.2219 36.3511 36.7405 36.6218L27.611 41.7572C26.1779 42.5633 24.4766 42.746 22.905 42.2624L9.61118 38.172C7.71204 37.5877 6.22538 36.101 5.64102 34.2018L3.66949 27.7944C3.50707 27.2665 3.80332 26.7069 4.33118 26.5445Z" fill="#86868B"/>
<path d="M38.2522 37.9197C35.7846 35.0946 25.6833 31.95 17.5305 30.3194C7.21803 28.2569 -3.09447 30.3194 1.71803 22.7569C6.3439 15.4877 34.2208 13.6787 39.6456 36.4172C40.0877 38.2701 38.7867 38.5316 38.2522 37.9197Z" fill="#9E9E9E"/>
<path fill-rule="evenodd" clip-rule="evenodd" d="M20.0872 17.6327C20.2211 18.1685 19.8954 18.7114 19.3596 18.8454C17.9104 19.2077 16.4983 20.265 15.238 21.832C13.9854 23.3894 12.9445 25.376 12.2215 27.4435C11.4979 29.5129 11.111 31.6114 11.1254 33.3788C11.1401 35.1889 11.5705 36.4472 12.244 37.0884C12.6441 37.4692 12.6596 38.1022 12.2788 38.5022C11.898 38.9022 11.2651 38.9178 10.8651 38.537C9.60275 37.3354 9.14172 35.3973 9.12545 33.3951C9.10883 31.3502 9.55136 29.0205 10.3336 26.7834C11.1164 24.5446 12.2577 22.3464 13.6796 20.5785C15.0938 18.8202 16.8486 17.4116 18.8745 16.9051C19.4103 16.7711 19.9532 17.0969 20.0872 17.6327ZM28.3529 20.4471C28.4511 20.9906 28.0902 21.5108 27.5467 21.6091C26.4407 21.809 25.164 22.5397 23.8922 23.7447C22.6334 24.9374 21.447 26.5322 20.5142 28.3305C18.6281 31.9666 17.8925 36.1927 19.3455 39.4697C19.5694 39.9745 19.3416 40.5653 18.8367 40.7892C18.3318 41.013 17.7411 40.7852 17.5172 40.2803C15.7173 36.2209 16.7121 31.317 18.7388 27.4096C19.7624 25.4362 21.078 23.6559 22.5167 22.2928C23.9424 20.9419 25.5587 19.936 27.191 19.6409C27.7345 19.5427 28.2547 19.9037 28.3529 20.4471Z" fill="#86868B"/>
</svg>
