<svg width="45" height="44" viewBox="0 0 45 44" fill="none" xmlns="http://www.w3.org/2000/svg">
<path fill-rule="evenodd" clip-rule="evenodd" d="M22.5 41.8C33.4352 41.8 42.3 32.9352 42.3 22C42.3 11.0648 33.4352 2.2 22.5 2.2C11.5648 2.2 2.7 11.0648 2.7 22C2.7 32.9352 11.5648 41.8 22.5 41.8ZM22.5 44C34.6503 44 44.5 34.1503 44.5 22C44.5 9.84974 34.6503 0 22.5 0C10.3497 0 0.5 9.84974 0.5 22C0.5 34.1503 10.3497 44 22.5 44Z" fill="#D2D2D7"/>
<path fill-rule="evenodd" clip-rule="evenodd" d="M22.5002 34.1002C29.1828 34.1002 34.6002 28.6828 34.6002 22.0002C34.6002 15.3175 29.1828 9.9002 22.5002 9.9002C15.8175 9.9002 10.4002 15.3175 10.4002 22.0002C10.4002 28.6828 15.8175 34.1002 22.5002 34.1002ZM22.5002 36.3002C30.3979 36.3002 36.8002 29.8979 36.8002 22.0002C36.8002 14.1025 30.3979 7.7002 22.5002 7.7002C14.6025 7.7002 8.2002 14.1025 8.2002 22.0002C8.2002 29.8979 14.6025 36.3002 22.5002 36.3002Z" fill="#D2D2D7"/>
<path fill-rule="evenodd" clip-rule="evenodd" d="M22.4998 27.4998C25.5374 27.4998 27.9998 25.0374 27.9998 21.9998C27.9998 18.9622 25.5374 16.4998 22.4998 16.4998C19.4622 16.4998 16.9998 18.9622 16.9998 21.9998C16.9998 25.0374 19.4622 27.4998 22.4998 27.4998ZM22.4998 29.6998C26.7524 29.6998 30.1998 26.2524 30.1998 21.9998C30.1998 17.7472 26.7524 14.2998 22.4998 14.2998C18.2472 14.2998 14.7998 17.7472 14.7998 21.9998C14.7998 26.2524 18.2472 29.6998 22.4998 29.6998Z" fill="#D2D2D7"/>
</svg>
