<svg width="45" height="44" viewBox="0 0 45 44" fill="none" xmlns="http://www.w3.org/2000/svg">
<path d="M17 15.8125C17 13.1546 14.8454 11 12.1875 11C9.52963 11 7.375 13.1546 7.375 15.8125" fill="#9E9E9E"/>
<path d="M37.625 15.8125C37.625 13.1546 35.4704 11 32.8125 11C30.1546 11 28 13.1546 28 15.8125" fill="#9E9E9E"/>
<path fill-rule="evenodd" clip-rule="evenodd" d="M13.2617 16.5595C13.9011 12.0736 17.7563 8.625 22.4188 8.625C26.978 8.625 30.765 11.9225 31.5285 16.2626L29.5588 16.6091C28.9606 13.2087 25.9904 10.625 22.4188 10.625C18.7659 10.625 15.7426 13.3274 15.2417 16.8417L13.2617 16.5595Z" fill="#86868B"/>
<path fill-rule="evenodd" clip-rule="evenodd" d="M33.0469 16.3483C34.1168 15.8055 35.327 15.5 36.6055 15.5C40.9548 15.5 44.4805 19.0258 44.4805 23.375C44.4805 25.1284 43.9063 26.7505 42.936 28.0598L41.3292 26.869C42.0529 25.8925 42.4805 24.6851 42.4805 23.375C42.4805 20.1303 39.8502 17.5 36.6055 17.5C35.6486 17.5 34.7477 17.7281 33.9517 18.1319L33.0469 16.3483Z" fill="#86868B"/>
<path fill-rule="evenodd" clip-rule="evenodd" d="M0.875 23.375C0.875 19.0258 4.40076 15.5 8.75 15.5C10.1594 15.5 11.4851 15.8711 12.6316 16.5217L11.6446 18.2612C10.7911 17.7769 9.80439 17.5 8.75 17.5C5.50533 17.5 2.875 20.1303 2.875 23.375C2.875 24.7224 3.32738 25.9613 4.08909 26.9521L2.50352 28.1711C1.48251 26.8431 0.875 25.1786 0.875 23.375Z" fill="#86868B"/>
<path fill-rule="evenodd" clip-rule="evenodd" d="M0.875 34.1844C0.875 23.1059 9.8559 14.125 20.9344 14.125H24.0656C35.1441 14.125 44.125 23.1059 44.125 34.1844C44.125 34.842 43.592 35.375 42.9344 35.375H2.06559C1.40804 35.375 0.875 34.8419 0.875 34.1844ZM2.89281 33.375H42.1072C41.6838 23.7767 33.7683 16.125 24.0656 16.125H20.9344C11.2317 16.125 3.31616 23.7767 2.89281 33.375Z" fill="#86868B"/>
<path d="M19.75 22C19.75 22.7594 19.1344 23.375 18.375 23.375C17.6156 23.375 17 22.7594 17 22C17 21.2406 17.6156 20.625 18.375 20.625C19.1344 20.625 19.75 21.2406 19.75 22Z" fill="#9E9E9E"/>
<path d="M25.25 27.5C25.25 28.2594 24.6344 28.875 23.875 28.875C23.1156 28.875 22.5 28.2594 22.5 27.5C22.5 26.7406 23.1156 26.125 23.875 26.125C24.6344 26.125 25.25 26.7406 25.25 27.5Z" fill="#9E9E9E"/>
<path d="M34.875 26.125C34.875 26.8844 34.2594 27.5 33.5 27.5C32.7406 27.5 32.125 26.8844 32.125 26.125C32.125 25.3656 32.7406 24.75 33.5 24.75C34.2594 24.75 34.875 25.3656 34.875 26.125Z" fill="#9E9E9E"/>
<path d="M11.5 28.875C11.5 29.6344 10.8844 30.25 10.125 30.25C9.36561 30.25 8.75 29.6344 8.75 28.875C8.75 28.1156 9.36561 27.5 10.125 27.5C10.8844 27.5 11.5 28.1156 11.5 28.875Z" fill="#9E9E9E"/>
</svg>
