<svg width="45" height="44" viewBox="0 0 45 44" fill="none" xmlns="http://www.w3.org/2000/svg">
<path fill-rule="evenodd" clip-rule="evenodd" d="M13.2918 8.77386C10.9637 10.1707 9.75 11.9611 9.75 13.75C9.75 15.5389 10.9637 17.3293 13.2918 18.7261C15.5999 20.111 18.8531 21 22.5 21C26.1469 21 29.4001 20.111 31.7082 18.7261C34.0363 17.3293 35.25 15.5389 35.25 13.75C35.25 11.9611 34.0363 10.1707 31.7082 8.77386C29.4001 7.38898 26.1469 6.5 22.5 6.5C18.8531 6.5 15.5999 7.38898 13.2918 8.77386ZM12.2628 7.05888C14.9312 5.45784 18.553 4.5 22.5 4.5C26.447 4.5 30.0688 5.45784 32.7372 7.05888C35.3857 8.64796 37.25 10.9826 37.25 13.75C37.25 16.5174 35.3857 18.852 32.7372 20.4411C30.0688 22.0422 26.447 23 22.5 23C18.553 23 14.9312 22.0422 12.2628 20.4411C9.61431 18.852 7.75 16.5174 7.75 13.75C7.75 10.9826 9.61431 8.64796 12.2628 7.05888Z" fill="#86868B"/>
<path d="M30.75 13.75C30.75 16.0282 27.0563 17.875 22.5 17.875C17.9437 17.875 14.25 16.0282 14.25 13.75C14.25 11.4718 17.9437 9.625 22.5 9.625C27.0563 9.625 30.75 11.4718 30.75 13.75Z" fill="#9E9E9E"/>
<path fill-rule="evenodd" clip-rule="evenodd" d="M7.75 13.7501C7.75 13.75 7.75 13.75 8.75 13.75C9.75 13.75 9.75 13.75 9.75 13.7501V30.25C9.75 32.0389 10.9637 33.8293 13.2918 35.2261C15.5999 36.611 18.8531 37.5 22.5 37.5C26.1469 37.5 29.4001 36.611 31.7082 35.2261C34.0363 33.8293 35.25 32.0389 35.25 30.25V13.75H37.25V30.25C37.25 33.0174 35.3857 35.352 32.7372 36.9411C30.0688 38.5422 26.447 39.5 22.5 39.5C18.553 39.5 14.9312 38.5422 12.2628 36.9411C9.61431 35.352 7.75 33.0174 7.75 30.25V13.7501Z" fill="#86868B"/>
</svg>
