<svg width="45" height="44" viewBox="0 0 45 44" fill="none" xmlns="http://www.w3.org/2000/svg">
<path fill-rule="evenodd" clip-rule="evenodd" d="M6.70618 18.2945C7.23404 18.1321 7.79363 18.4283 7.95604 18.9562L9.92758 25.3637C10.3171 26.6298 11.3083 27.6209 12.5744 28.0104L25.8681 32.1008C26.9159 32.4232 28.0501 32.3015 29.0055 31.764L38.135 26.6287C38.6164 26.3579 39.2261 26.5286 39.4968 27.01C39.7676 27.4914 39.5969 28.1011 39.1155 28.3718L29.986 33.5072C28.5529 34.3133 26.8516 34.496 25.28 34.0124L11.9862 29.922C10.087 29.3377 8.60038 27.851 8.01602 25.9518L6.04449 19.5444C5.88207 19.0165 6.17832 18.4569 6.70618 18.2945Z" fill="#86868B"/>
<path d="M40.6272 29.6697C38.1596 26.8446 28.0583 23.7 19.9055 22.0694C9.59303 20.0069 -0.719467 22.0694 4.09303 14.5069C8.7189 7.23768 36.5958 5.42873 42.0206 28.1672C42.4627 30.0201 41.1617 30.2816 40.6272 29.6697Z" fill="#9E9E9E"/>
<path fill-rule="evenodd" clip-rule="evenodd" d="M22.4622 9.38268C22.5961 9.91847 22.2704 10.4614 21.7346 10.5954C20.2854 10.9577 18.8733 12.015 17.613 13.582C16.3604 15.1394 15.3195 17.126 14.5965 19.1935C13.8729 21.2629 13.486 23.3614 13.5004 25.1288C13.5151 26.9389 13.9455 28.1972 14.619 28.8384C15.0191 29.2192 15.0346 29.8522 14.6538 30.2522C14.273 30.6522 13.6401 30.6678 13.2401 30.287C11.9778 29.0854 11.5167 27.1473 11.5005 25.1451C11.4838 23.1002 11.9264 20.7705 12.7086 18.5334C13.4914 16.2946 14.6327 14.0964 16.0546 12.3285C17.4688 10.5702 19.2236 9.16162 21.2495 8.6551C21.7853 8.52114 22.3282 8.84689 22.4622 9.38268ZM30.7279 12.1971C30.8261 12.7406 30.4652 13.2608 29.9217 13.3591C28.8157 13.559 27.539 14.2897 26.2672 15.4947C25.0084 16.6874 23.822 18.2822 22.8892 20.0805C21.0031 23.7166 20.2675 27.9427 21.7205 31.2197C21.9444 31.7245 21.7166 32.3153 21.2117 32.5392C20.7068 32.763 20.1161 32.5352 19.8922 32.0303C18.0923 27.9709 19.0871 23.067 21.1138 19.1596C22.1374 17.1862 23.453 15.4059 24.8917 14.0428C26.3174 12.6919 27.9337 11.686 29.566 11.3909C30.1095 11.2927 30.6297 11.6537 30.7279 12.1971Z" fill="#86868B"/>
</svg>
