<svg width="24" height="24" viewBox="0 0 24 24" fill="none" xmlns="http://www.w3.org/2000/svg">
<path fill="#686870" style="fill: var(--color1, #686870)" d="M14.667 5.333c-5.155 0-9.333 4.179-9.333 9.333s4.179 9.333 9.333 9.333c5.155 0 9.333-4.179 9.333-9.333s-4.179-9.333-9.333-9.333zM2.667 14.667c0-6.627 5.373-12 12-12s12 5.373 12 12c0 6.627-5.373 12-12 12s-12-5.373-12-12z"></path>
<path fill="#686870" style="fill: var(--color1, #686870)" d="M21.255 21.255c0.521-0.521 1.365-0.521 1.886 0l5.8 5.8c0.521 0.521 0.521 1.365 0 1.886s-1.365 0.521-1.886 0l-5.8-5.8c-0.521-0.521-0.521-1.365 0-1.886z"></path>
</svg>