<svg aria-hidden="true" style="position: absolute; width: 0; height: 0; overflow: hidden;" version="1.1" xmlns="http://www.w3.org/2000/svg" xmlns:xlink="http://www.w3.org/1999/xlink">
<defs>
<symbol id="icon-arow-down" viewBox="0 0 32 32">
<path fill="#686870" style="fill: var(--color1, #686870)" d="M7.068 11.057c0.521-0.521 1.365-0.521 1.886 0l7.057 7.057 7.057-7.057c0.521-0.521 1.365-0.521 1.886 0s0.521 1.365 0 1.886l-8 8c-0.521 0.521-1.365 0.521-1.886 0l-8-8c-0.521-0.521-0.521-1.365 0-1.886z"></path>
</symbol>
<symbol id="icon-bell" viewBox="0 0 32 32">
<path fill="#686870" style="fill: var(--color1, #686870)" d="M9.4 4.067c1.75-1.75 4.124-2.734 6.6-2.734s4.849 0.983 6.6 2.734c1.75 1.75 2.734 4.124 2.734 6.6 0 4.47 0.956 7.246 1.837 8.861 0.442 0.811 0.873 1.343 1.172 1.659 0.15 0.158 0.268 0.263 0.339 0.322 0.035 0.030 0.059 0.048 0.069 0.055 0.002 0.001 0.003 0.002 0.004 0.003 0.478 0.328 0.689 0.929 0.521 1.485-0.17 0.562-0.689 0.947-1.276 0.947h-24c-0.588 0-1.106-0.385-1.276-0.947-0.168-0.556 0.043-1.157 0.521-1.485 0.001-0.001 0.002-0.002 0.004-0.003 0.010-0.008 0.034-0.026 0.070-0.055 0.071-0.059 0.189-0.164 0.339-0.322 0.299-0.316 0.73-0.848 1.172-1.659 0.881-1.615 1.837-4.391 1.837-8.861 0-2.475 0.983-4.849 2.734-6.6zM3.259 21.559c0-0 0-0 0-0s0 0 0 0l-0 0zM6.866 21.333h18.269c-0.101-0.166-0.203-0.342-0.305-0.528-1.119-2.051-2.163-5.275-2.163-10.139 0-1.768-0.702-3.464-1.953-4.714s-2.946-1.953-4.714-1.953c-1.768 0-3.464 0.702-4.714 1.953s-1.953 2.946-1.953 4.714c0 4.863-1.044 8.087-2.163 10.139-0.101 0.186-0.203 0.362-0.305 0.528z"></path>
<path fill="#686870" style="fill: var(--color1, #686870)" d="M13.029 26.847c0.637-0.37 1.453-0.153 1.822 0.484 0.117 0.202 0.285 0.37 0.488 0.486s0.432 0.178 0.665 0.178 0.463-0.061 0.665-0.178c0.202-0.117 0.371-0.284 0.488-0.486 0.369-0.637 1.185-0.854 1.822-0.484s0.854 1.185 0.484 1.822c-0.352 0.606-0.856 1.109-1.464 1.459s-1.296 0.534-1.996 0.534-1.389-0.184-1.996-0.534c-0.607-0.35-1.112-0.853-1.464-1.459-0.37-0.637-0.153-1.453 0.484-1.822z"></path>
</symbol>
<symbol id="icon-cost" viewBox="0 0 33 32">
<path fill="#686870" style="fill: var(--color1, #686870)" d="M7.6 1.867c0.252-0.336 0.647-0.533 1.067-0.533h16c0.42 0 0.815 0.198 1.067 0.533l4 5.333c0.173 0.231 0.267 0.511 0.267 0.8v18.667c0 1.061-0.421 2.078-1.172 2.828s-1.767 1.172-2.828 1.172h-18.667c-1.061 0-2.078-0.421-2.828-1.172s-1.172-1.767-1.172-2.828v-18.667c0-0.288 0.094-0.569 0.267-0.8l4-5.333zM9.333 4l-3.333 4.444v18.222c0 0.354 0.14 0.693 0.391 0.943s0.589 0.391 0.943 0.391h18.667c0.354 0 0.693-0.141 0.943-0.391s0.391-0.589 0.391-0.943v-18.222l-3.333-4.444h-14.667z"></path>
<path fill="#686870" style="fill: var(--color1, #686870)" d="M3.333 8c0-0.736 0.597-1.333 1.333-1.333h24c0.736 0 1.333 0.597 1.333 1.333s-0.597 1.333-1.333 1.333h-24c-0.736 0-1.333-0.597-1.333-1.333z"></path>
<path fill="#686870" style="fill: var(--color1, #686870)" d="M11.333 12c0.736 0 1.333 0.597 1.333 1.333 0 1.061 0.421 2.078 1.172 2.828s1.768 1.172 2.828 1.172 2.078-0.421 2.828-1.172c0.75-0.75 1.172-1.768 1.172-2.828 0-0.736 0.597-1.333 1.333-1.333s1.333 0.597 1.333 1.333c0 1.768-0.702 3.464-1.953 4.714s-2.946 1.953-4.714 1.953-3.464-0.702-4.714-1.953c-1.25-1.25-1.953-2.946-1.953-4.714 0-0.736 0.597-1.333 1.333-1.333z"></path>
</symbol>
<symbol id="icon-favorite" viewBox="0 0 32 32">
<path fill="#686870" style="fill: var(--color1, #686870)" d="M4.896 9.178c0.872-1.476 2.294-2.512 4.435-2.512 2.143 0 3.449 1.043 4.267 2.133 0.417 0.556 0.7 1.12 0.878 1.546 0.088 0.211 0.148 0.384 0.185 0.499 0.018 0.057 0.031 0.1 0.038 0.125l0.007 0.025c0 0-0-0 0 0 0.15 0.591 0.682 1.005 1.292 1.005s1.142-0.415 1.292-1.006c0-0-0 0 0 0s0-0.001 0.001-0.002l-0.001 0.002 0.007-0.024c0.007-0.025 0.020-0.067 0.038-0.125 0.037-0.115 0.097-0.288 0.185-0.499 0.178-0.427 0.46-0.99 0.878-1.546 0.818-1.091 2.124-2.133 4.267-2.133 2.141 0 3.563 1.036 4.435 2.512 0.906 1.533 1.204 3.542 0.916 5.269-0.566 3.397-3.512 6.459-6.638 8.774-1.525 1.129-3.015 2.025-4.126 2.638-0.513 0.283-0.942 0.505-1.254 0.661-0.311-0.156-0.741-0.377-1.254-0.661-1.111-0.614-2.602-1.509-4.126-2.638-3.126-2.315-6.072-5.377-6.638-8.774-0.288-1.727 0.010-3.736 0.916-5.269zM15.999 10.667c-1.294 0.323-1.293 0.324-1.293 0.325l0.001 0.003 0 0.002zM15.999 7.575c-0.084-0.124-0.173-0.249-0.267-0.375-1.182-1.576-3.21-3.2-6.4-3.2-3.192 0-5.437 1.631-6.731 3.822-1.261 2.134-1.629 4.791-1.25 7.064 0.749 4.494 4.47 8.099 7.682 10.478 1.644 1.218 3.241 2.176 4.424 2.83 0.593 0.327 1.085 0.58 1.432 0.752 0.173 0.086 0.311 0.152 0.406 0.197 0.048 0.023 0.085 0.040 0.111 0.052l0.043 0.020c0 0 0.002 0.001 0.552-1.214l-0.55 1.215c0.35 0.158 0.75 0.158 1.1 0l-0.55-1.215c0.55 1.215 0.55 1.215 0.55 1.215l0.005-0.002 0.009-0.004 0.031-0.014c0.026-0.012 0.063-0.029 0.111-0.052 0.095-0.045 0.233-0.111 0.406-0.197 0.347-0.172 0.839-0.424 1.432-0.752 1.183-0.653 2.78-1.612 4.424-2.83 3.212-2.379 6.933-5.984 7.682-10.478 0.379-2.273 0.010-4.93-1.251-7.064-1.295-2.191-3.539-3.822-6.731-3.822-3.191 0-5.218 1.624-6.4 3.2-0.094 0.125-0.183 0.25-0.267 0.375z"></path>
</symbol>
<symbol id="icon-phone" viewBox="0 0 32 32">
<path fill="#f63" style="fill: var(--color2, #f63)" d="M28.535 16.294c0.554 0 1.004-0.449 1.004-1.003 0-7.205-5.625-12.83-12.83-12.83-0.554 0-1.003 0.449-1.003 1.003s0.449 1.003 1.003 1.003c6.096 0 10.823 4.726 10.823 10.823 0 0.554 0.449 1.003 1.003 1.003zM13.161 12.689c1.176-1.176 1.176-3.082 0-4.257l-2.838-2.838c-1.176-1.176-3.082-1.176-4.257 0l-2.722 2.722c-0.594 0.594-0.913 1.409-0.879 2.249 0.17 4.248 2.335 8.428 6.439 12.532s8.284 6.27 12.532 6.439c0.839 0.033 1.655-0.285 2.249-0.879l2.722-2.722c1.176-1.176 1.176-3.082 0-4.257l-2.838-2.838c-1.176-1.176-3.082-1.176-4.257 0l-1.53 1.53c-0.119 0.119-0.309 0.131-0.442 0.027l-1.196-0.93c-1.348-1.048-2.56-2.261-3.608-3.608l-0.931-1.196c-0.104-0.133-0.092-0.323 0.028-0.442l1.53-1.53zM4.763 9.734l2.722-2.722c0.392-0.392 1.027-0.392 1.419 0l2.838 2.838c0.392 0.392 0.392 1.027 0 1.419l-1.53 1.53c-0.835 0.835-0.918 2.161-0.193 3.093l0.931 1.196c1.151 1.479 2.481 2.81 3.96 3.96l1.196 0.931c0.932 0.725 2.258 0.642 3.093-0.193l1.53-1.53c0.392-0.392 1.027-0.392 1.419 0l2.838 2.838c0.392 0.392 0.392 1.027 0 1.419l-2.722 2.722c-0.198 0.198-0.47 0.304-0.75 0.293-3.691-0.147-7.419-2.079-11.193-5.853s-5.706-7.503-5.853-11.193c-0.011-0.28 0.095-0.552 0.293-0.75zM25.281 15.764c0 0.554-0.449 1.003-1.003 1.003s-1.003-0.449-1.003-1.003c0-3.51-3.528-7.038-7.038-7.038-0.554 0-1.003-0.449-1.003-1.003s0.449-1.003 1.003-1.003c4.619 0 9.045 4.427 9.045 9.045z"></path>
</symbol>
<symbol id="icon-profile" viewBox="0 0 32 32">
<path fill="#686870" style="fill: var(--color1, #686870)" d="M5.953 20.619c1.25-1.25 2.946-1.953 4.714-1.953h10.667c1.768 0 3.464 0.702 4.714 1.953s1.953 2.946 1.953 4.714v2.667c0 0.736-0.597 1.333-1.333 1.333s-1.333-0.597-1.333-1.333v-2.667c0-1.061-0.421-2.078-1.172-2.828s-1.768-1.172-2.828-1.172h-10.667c-1.061 0-2.078 0.421-2.828 1.172s-1.172 1.768-1.172 2.828v2.667c0 0.736-0.597 1.333-1.333 1.333s-1.333-0.597-1.333-1.333v-2.667c0-1.768 0.702-3.464 1.953-4.714z"></path>
<path fill="#686870" style="fill: var(--color1, #686870)" d="M16 5.333c-2.209 0-4 1.791-4 4s1.791 4 4 4c2.209 0 4-1.791 4-4s-1.791-4-4-4zM9.333 9.333c0-3.682 2.985-6.667 6.667-6.667s6.667 2.985 6.667 6.667c0 3.682-2.985 6.667-6.667 6.667s-6.667-2.985-6.667-6.667z"></path>
</symbol>
<symbol id="icon-ua" viewBox="0 0 40 32">
<path fill="#155db9" style="fill: var(--color3, #155db9)" d="M0 0h40v16h-40v-16z"></path>
<path fill="#fcd330" style="fill: var(--color4, #fcd330)" d="M0 16h40v16h-40v-16z"></path>
</symbol>
</defs>
</svg>
